<svg xmlns="http://www.w3.org/2000/svg" width="203" height="190" fill="none" viewBox="0 0 203 190"><g clip-path="url(#clip0)" filter="url(#filter0_d)"><rect width="27.853" height="147.327" fill="#FFFFFE" rx="13.927" transform="matrix(0.989284 -0.146003 0.132651 0.991163 10.5262 8.39481)"/><rect width="28.7" height="155.929" fill="#FFFFFE" rx="14.35" transform="matrix(-0.596914 -0.802305 0.773101 -0.634283 17.1312 137.087)"/><rect width="27.853" height="180.738" fill="#FFFFFE" rx="13.927" transform="matrix(0.989284 -0.146003 0.132651 0.991163 75.1666 4.27428)"/><path fill="#FFFFFE" d="M159.248 59.4919C153.834 60.2909 149.42 61.9963 146.006 64.6083C142.591 67.2203 139.904 70.5813 137.945 74.6913C136.092 78.6539 134.957 83.301 134.541 88.6325C134.231 93.8166 134.491 99.5095 135.321 105.711C137.241 120.053 140.812 130.329 146.035 136.542C151.24 142.625 158.026 145.049 166.392 143.814C170.417 143.22 170.147 143.032 171.909 141.552C173.459 140.25 176.197 132.712 176.424 128.908C176.443 128.589 176.408 128.272 176.347 127.958L172.099 106.088C170.715 98.9646 176.718 92.5801 183.913 93.5234C188.676 94.1478 192.428 97.8898 193.065 102.651L198.736 145.025C199.499 150.723 196.671 156.269 191.34 158.419C190.217 158.873 189.015 159.344 187.733 159.835C182.246 161.962 175.442 163.625 167.322 164.823C160.186 165.876 153.554 165.538 147.425 163.807C141.402 161.929 136.015 158.706 131.263 154.137C126.494 149.439 122.484 143.377 119.231 135.952C115.962 128.397 113.636 119.452 112.252 109.116C110.886 98.9089 110.976 89.7387 112.523 81.6053C114.052 73.3427 116.676 66.2359 120.397 60.2849C124.117 54.334 128.819 49.6216 134.501 46.1478C140.167 42.5448 146.445 40.2349 153.335 39.2181C157.764 38.5644 161.753 38.3709 165.302 38.6377C168.956 38.7571 172.136 39.0784 174.841 39.6015C177.546 40.1246 179.767 40.7849 181.505 41.5824C183.957 42.6094 185.378 45.1907 184.934 47.8117L184.192 52.1919C183.258 57.7092 177.197 60.9423 171.713 59.8261C167.586 58.9859 163.431 58.8745 159.248 59.4919Z"/></g><defs><filter id="filter0_d" width="208" height="191.208" x="-4" y=".208" color-interpolation-filters="sRGB" filterUnits="userSpaceOnUse"><feFlood flood-opacity="0" result="BackgroundImageFix"/><feColorMatrix in="SourceAlpha" type="matrix" values="0 0 0 0 0 0 0 0 0 0 0 0 0 0 0 0 0 0 127 0"/><feOffset dy="4"/><feGaussianBlur stdDeviation="2"/><feColorMatrix type="matrix" values="0 0 0 0 0 0 0 0 0 0 0 0 0 0 0 0 0 0 0.25 0"/><feBlend in2="BackgroundImageFix" mode="normal" result="effect1_dropShadow"/><feBlend in="SourceGraphic" in2="effect1_dropShadow" mode="normal" result="shape"/></filter><clipPath id="clip0"><rect width="200" height="183.208" fill="#fff" transform="translate(0 0.207642)"/></clipPath></defs></svg>