<?xml version="1.0" standalone="no"?>
<!DOCTYPE svg PUBLIC "-//W3C//DTD SVG 20010904//EN"
 "http://www.w3.org/TR/2001/REC-SVG-20010904/DTD/svg10.dtd">
<svg version="1.0" xmlns="http://www.w3.org/2000/svg"
 width="812.000000pt" height="812.000000pt" viewBox="0 0 812.000000 812.000000"
 preserveAspectRatio="xMidYMid meet">
<metadata>
Created by potrace 1.11, written by Peter Selinger 2001-2013
</metadata>
<g transform="translate(0.000000,812.000000) scale(0.100000,-0.100000)"
fill="#000000" stroke="none">
<path d="M3555 7769 c-69 -14 -79 -17 -134 -38 -122 -49 -224 -146 -288 -276
-28 -55 -35 -76 -51 -145 -7 -33 -6 -166 2 -210 9 -50 17 -119 19 -162 1 -21
4 -38 7 -38 3 0 5 -15 5 -32 -1 -18 1 -37 4 -43 7 -13 9 -27 15 -95 3 -31 7
-62 10 -70 3 -8 8 -44 11 -80 3 -36 9 -85 13 -110 4 -25 7 -57 7 -72 -1 -16 1
-28 5 -28 5 0 8 -10 7 -22 0 -13 3 -43 7 -68 8 -56 18 -139 20 -165 0 -11 6
-23 11 -27 6 -5 5 -8 -3 -8 -10 0 -10 -5 -2 -20 6 -11 8 -20 5 -20 -3 0 -1 -9
5 -20 8 -14 8 -20 0 -20 -8 0 -8 -6 0 -20 8 -14 8 -20 0 -20 -6 0 -9 -4 -6 -9
3 -5 -6 -17 -21 -27 -29 -18 -35 -23 -81 -64 -16 -14 -48 -41 -72 -59 -23 -19
-48 -40 -54 -45 -6 -6 -58 -49 -116 -96 -58 -47 -114 -93 -125 -102 -11 -9
-76 -62 -144 -118 -68 -56 -130 -107 -137 -113 -7 -7 -25 -22 -41 -34 -15 -12
-38 -30 -51 -41 -13 -11 -42 -35 -64 -54 -159 -128 -339 -275 -373 -303 -22
-19 -40 -33 -41 -32 -2 3 -15 85 -18 122 -2 17 -6 50 -10 75 -4 25 -9 61 -11
80 -2 19 -6 51 -9 70 -3 19 -7 54 -10 77 -2 23 -7 47 -11 52 -3 6 0 11 7 11 8
0 9 3 3 8 -12 8 -14 17 -20 79 -3 26 -7 55 -11 65 -3 11 0 18 8 18 10 0 10 2
0 8 -7 5 -14 33 -16 63 -2 30 -7 61 -10 69 -3 8 -8 40 -12 70 -13 111 -16 136
-18 165 -2 17 -4 32 -6 35 -1 3 -3 19 -5 36 -2 16 -6 48 -9 70 -4 21 -9 59
-12 83 -11 95 -13 107 -18 131 -4 25 -14 98 -22 175 -3 22 -7 56 -9 75 -9 65
-17 125 -20 155 -2 17 -4 30 -5 30 -2 0 -7 33 -15 95 -8 68 -12 102 -20 160
-3 25 -8 62 -11 84 -2 21 -7 42 -10 47 -3 5 1 9 8 9 10 0 10 2 -1 9 -8 5 -11
16 -8 25 4 9 2 16 -3 16 -6 0 -9 3 -8 8 1 4 -1 26 -5 49 -4 24 -7 45 -7 48 -1
9 -68 133 -81 150 -119 146 -260 219 -431 224 -75 2 -199 -21 -225 -41 -7 -6
-13 -8 -13 -4 0 8 -91 -47 -126 -76 -57 -47 -124 -121 -124 -137 0 -5 -7 -14
-15 -21 -8 -7 -12 -16 -9 -21 3 -5 1 -9 -4 -9 -8 0 -42 -91 -50 -135 -8 -48
-10 -204 -2 -245 5 -25 11 -70 14 -100 3 -30 8 -66 10 -80 7 -33 18 -137 20
-172 1 -16 4 -28 7 -28 3 0 4 -13 3 -30 -1 -16 1 -30 5 -30 3 0 7 -12 7 -27 2
-37 12 -138 14 -138 2 0 6 -30 14 -103 3 -29 8 -57 11 -62 3 -4 6 -28 6 -52 1
-23 6 -51 11 -60 6 -12 5 -18 -2 -18 -8 0 -7 -6 0 -20 6 -12 12 -45 13 -75 1
-30 5 -55 8 -55 3 0 6 -15 6 -32 0 -18 4 -51 8 -73 4 -22 8 -61 9 -87 0 -27 4
-48 8 -48 3 0 5 -8 3 -17 -1 -10 2 -26 7 -37 8 -14 7 -17 -4 -10 -10 6 -11 5
-1 -7 6 -8 13 -42 15 -77 2 -34 7 -62 12 -62 5 0 4 -6 -3 -13 -6 -8 -7 -17 -2
-23 5 -5 12 -31 15 -59 3 -27 8 -63 10 -80 12 -77 27 -201 30 -235 1 -14 4
-30 7 -35 3 -6 7 -32 8 -60 2 -27 4 -52 6 -56 5 -6 16 -99 19 -144 1 -17 5
-36 10 -43 4 -7 2 -12 -6 -12 -10 0 -10 -2 -1 -8 7 -4 12 -16 11 -27 0 -11 4
-49 10 -85 5 -36 11 -73 11 -82 4 -58 6 -68 13 -68 4 0 5 -7 2 -15 -4 -8 -11
-12 -18 -9 -6 3 -3 -1 6 -9 9 -7 17 -22 17 -33 0 -21 7 -73 16 -117 4 -22 3
-27 -7 -21 -10 6 -10 5 -1 -7 11 -14 20 -51 27 -117 4 -29 -2 -37 -52 -80 -32
-26 -59 -49 -62 -52 -3 -3 -54 -46 -115 -95 -60 -49 -115 -94 -121 -100 -7 -5
-31 -26 -55 -45 -107 -85 -198 -210 -224 -305 -27 -99 -31 -132 -28 -210 2
-82 4 -97 17 -127 4 -9 5 -22 1 -28 -3 -5 -1 -10 5 -10 7 0 10 -7 6 -15 -3 -8
0 -15 5 -15 7 0 9 -11 7 -24 -3 -15 -1 -23 6 -20 6 2 16 -8 22 -23 12 -33 12
-49 1 -45 -5 1 -6 -2 -2 -7 3 -6 12 -8 20 -4 10 3 15 -1 15 -12 0 -9 5 -13 10
-10 6 3 10 1 10 -5 0 -6 14 -24 31 -41 27 -26 29 -32 17 -47 -12 -15 -11 -16
4 -4 19 15 42 7 32 -10 -4 -6 -2 -8 3 -5 6 4 25 -6 42 -22 17 -16 31 -25 31
-19 0 5 5 6 10 3 6 -4 8 -11 5 -16 -3 -5 0 -6 8 -3 8 3 21 -2 30 -10 8 -8 17
-13 20 -10 3 4 12 2 19 -2 14 -9 28 -13 73 -20 17 -2 31 -8 33 -14 2 -5 10 -6
18 -3 31 12 119 7 116 -6 -1 -7 2 -10 8 -6 6 3 8 10 5 15 -3 4 16 11 42 15 26
4 64 15 85 26 20 10 44 19 52 19 8 0 16 6 19 13 8 22 16 3 21 -48 2 -28 5 -50
6 -50 3 0 11 -81 13 -127 1 -21 4 -38 7 -38 5 0 11 -55 13 -107 1 -13 6 -23
12 -23 5 0 3 -5 -5 -10 -8 -5 -10 -10 -4 -10 6 0 12 -12 13 -27 4 -66 18 -117
43 -161 23 -41 24 -59 1 -41 -15 13 -15 12 -2 -8 7 -12 16 -18 20 -12 3 6 11
4 19 -6 7 -8 9 -15 6 -15 -4 0 0 -7 8 -16 9 -8 14 -20 10 -25 -3 -5 -1 -8 3
-7 5 2 23 -11 39 -28 34 -37 121 -98 152 -108 12 -4 22 -12 22 -17 0 -5 3 -8
8 -7 16 5 108 -27 120 -41 10 -14 11 -14 5 3 -5 15 -3 17 7 11 16 -10 141 -15
136 -6 -2 3 18 6 44 6 26 0 46 4 42 9 -3 5 9 6 29 3 24 -5 30 -4 19 3 -13 8
-12 10 5 11 11 1 26 2 32 2 7 -1 11 3 8 7 -2 4 7 12 21 19 14 6 23 7 20 3 -3
-5 1 -9 8 -9 9 0 12 7 8 15 -4 11 -1 14 11 9 12 -4 14 -2 10 10 -4 10 -2 14 4
10 5 -3 17 3 26 14 10 11 22 17 28 14 5 -4 8 -2 7 3 -2 5 14 25 34 46 20 20
40 46 43 56 4 11 11 20 16 20 6 0 15 14 20 30 6 17 16 30 22 30 6 0 7 3 4 6
-3 4 -1 16 5 28 7 11 11 24 10 29 -1 4 2 7 6 7 4 0 8 8 9 18 1 9 5 35 9 57 3
22 7 49 8 60 0 11 6 23 11 27 6 5 6 8 -1 8 -13 0 -12 38 0 59 7 10 5 12 -3 6
-9 -5 -12 -1 -11 11 1 11 1 21 0 24 -1 3 -4 25 -5 50 -2 25 -4 45 -5 45 -2 0
-7 31 -13 85 -3 19 -7 55 -11 80 -6 46 -13 103 -22 175 -9 71 -12 90 -18 115
-3 14 -9 52 -12 85 -3 33 -7 76 -9 95 -2 19 -4 35 -5 35 -1 0 -3 16 -5 35 -2
19 -4 35 -5 35 -1 0 -3 15 -5 34 -2 19 -6 53 -10 75 -3 23 -8 64 -11 91 -3 28
-8 52 -10 54 -9 9 19 42 32 37 9 -3 12 -2 9 5 -8 12 26 40 39 32 5 -4 6 -1 3
4 -4 6 -1 16 7 22 11 9 15 9 19 -1 4 -9 6 -9 6 2 2 21 48 63 61 55 5 -3 10 -1
10 5 0 6 7 18 15 27 13 12 18 13 33 2 14 -11 15 -11 5 1 -10 11 -9 18 9 37 12
13 25 23 30 23 4 0 21 14 37 30 20 21 31 27 34 18 4 -10 6 -10 6 0 1 15 50 60
131 122 19 14 44 35 56 47 15 15 24 19 27 10 3 -7 6 -5 6 5 1 9 17 29 37 44
30 23 37 25 45 13 8 -10 9 -8 4 9 -3 12 -2 22 3 22 6 0 24 14 42 30 18 17 38
30 45 30 8 0 17 5 21 12 5 7 2 9 -7 4 -8 -4 0 4 16 18 17 14 38 29 47 32 9 3
20 14 23 25 7 21 25 25 41 9 7 -7 11 -6 11 4 0 8 -4 13 -9 10 -4 -3 -8 -2 -8
3 1 14 90 74 100 68 6 -3 7 1 4 9 -8 22 13 20 25 -1 6 -10 11 -13 11 -8 0 6
-6 17 -12 24 -11 11 -10 14 1 19 7 2 22 13 31 22 10 10 21 16 24 12 3 -3 6 2
6 11 0 12 7 15 28 11 20 -3 23 -2 12 6 -13 8 -12 12 7 25 12 8 29 22 38 31 8
8 15 12 15 9 0 -4 14 7 30 25 17 18 30 29 30 25 0 -4 9 3 20 16 10 13 19 21
20 17 0 -4 13 6 29 23 l30 31 -3 -29 c-1 -15 1 -33 5 -38 4 -6 9 -32 10 -58 2
-27 5 -50 9 -52 3 -2 6 -26 5 -54 0 -28 3 -51 7 -51 4 0 6 -14 4 -30 -2 -17 0
-32 4 -35 4 -3 8 -24 9 -47 2 -45 8 -93 11 -93 2 0 4 -16 6 -35 8 -82 12 -125
14 -125 3 0 10 -42 12 -82 2 -24 7 -43 11 -43 4 0 3 -9 -3 -19 -5 -11 -6 -21
-1 -23 4 -2 11 -34 15 -72 4 -39 9 -72 11 -75 3 -2 -1 -11 -8 -19 -9 -13 -9
-14 1 -8 8 5 12 -2 13 -23 2 -55 4 -66 13 -80 5 -8 4 -16 -5 -22 -12 -7 -12
-9 0 -9 8 0 11 -7 8 -20 -3 -11 -2 -22 2 -25 4 -2 9 -19 10 -37 1 -18 4 -49 6
-68 3 -19 7 -50 9 -68 1 -18 6 -35 10 -39 3 -3 -1 -18 -11 -32 -15 -24 -15
-25 0 -12 15 12 17 10 18 -20 0 -19 2 -43 5 -54 2 -11 6 -42 9 -70 4 -27 9
-53 12 -59 4 -5 0 -6 -8 -1 -11 7 -12 6 -3 -6 6 -8 10 -22 9 -31 -2 -10 1 -21
6 -24 6 -3 5 -12 -3 -22 -10 -12 -10 -14 0 -8 8 5 12 -1 13 -21 0 -15 2 -37 4
-48 2 -11 7 -47 10 -80 9 -84 13 -110 15 -110 1 0 3 -13 5 -30 2 -16 7 -55 11
-85 4 -30 8 -66 10 -80 2 -14 5 -35 8 -48 3 -13 0 -22 -7 -22 -9 0 -9 -2 0 -8
12 -7 17 -33 28 -132 2 -19 6 -53 9 -75 3 -22 8 -57 10 -79 3 -21 8 -41 11
-44 3 -3 -2 -17 -12 -31 -16 -25 -16 -25 1 -11 17 13 18 11 16 -20 -2 -19 0
-42 3 -50 3 -8 8 -32 12 -53 5 -31 3 -37 -7 -31 -10 6 -10 4 1 -9 7 -9 15 -31
17 -49 1 -18 6 -55 9 -83 4 -27 7 -60 8 -72 1 -13 3 -23 7 -23 3 0 6 -21 8
-48 1 -26 4 -56 6 -67 2 -11 -2 -26 -8 -34 -8 -11 -8 -13 0 -8 7 4 15 0 18 -9
4 -10 2 -13 -7 -8 -9 6 -9 4 -1 -7 6 -8 12 -27 13 -44 2 -16 4 -39 5 -50 1
-11 4 -24 7 -30 3 -5 5 -22 4 -37 0 -16 2 -28 5 -28 3 0 5 -23 5 -51 -1 -28 3
-53 8 -56 4 -2 2 -12 -5 -21 -10 -12 -10 -14 0 -8 8 5 12 1 13 -11 1 -10 3
-34 6 -53 2 -19 5 -43 6 -52 1 -10 5 -18 10 -18 5 0 6 -7 3 -16 -3 -8 -2 -12
4 -9 9 5 15 -15 11 -37 0 -5 3 -8 9 -8 5 0 10 -5 10 -11 0 -6 8 -21 18 -34 9
-12 24 -33 32 -45 25 -36 78 -88 109 -106 17 -10 27 -22 24 -28 -4 -5 1 -7 10
-3 9 3 20 0 24 -8 5 -7 10 -13 13 -13 3 1 15 -2 28 -6 16 -5 21 -13 17 -23 -4
-13 -3 -13 9 -4 10 8 21 9 40 1 15 -5 38 -10 51 -10 13 0 25 -6 28 -12 3 -10
7 -10 19 -1 11 10 19 9 38 -4 13 -9 20 -12 17 -6 -4 6 8 10 31 9 20 -1 43 3
51 9 12 8 13 7 6 -4 -6 -11 -5 -12 6 -5 8 5 16 9 19 9 53 8 181 60 188 77 2 4
10 8 18 8 8 0 14 5 14 12 0 6 3 9 6 6 5 -6 114 97 114 107 -1 11 25 33 32 28
4 -2 5 3 2 11 -3 9 -1 16 6 16 6 0 9 4 6 9 -3 5 1 14 9 21 8 7 15 19 15 26 0
8 4 22 9 32 14 26 24 56 22 66 -1 4 2 13 7 20 5 6 8 39 8 73 -1 35 3 63 7 63
5 0 6 4 3 9 -7 11 -12 41 -31 211 -6 46 -12 85 -15 85 -1 0 -3 18 -5 40 -7 76
-14 140 -15 140 -5 0 -10 49 -13 102 -1 35 -5 63 -9 63 -4 0 -7 8 -6 18 0 15
-5 59 -15 137 -2 11 2 26 7 34 8 11 8 13 0 8 -15 -9 -24 46 -12 68 5 8 6 15 1
14 -20 -3 -27 2 -13 11 12 8 12 10 1 10 -11 0 -11 3 0 17 8 9 9 14 3 10 -8 -4
-13 4 -16 23 -3 17 -3 30 -2 30 10 0 44 -72 38 -81 -4 -8 -3 -9 4 -5 9 5 35
-26 37 -44 0 -3 10 -19 23 -37 12 -17 22 -36 22 -43 0 -6 5 -8 10 -5 9 5 15
-15 11 -37 0 -5 6 -8 14 -8 9 0 19 -8 22 -17 4 -10 11 -21 17 -25 6 -4 5 -13
-5 -25 -12 -16 -12 -17 2 -6 12 10 18 8 30 -9 8 -11 25 -31 39 -44 14 -13 20
-24 15 -24 -5 0 1 -7 13 -16 12 -8 20 -20 16 -25 -3 -5 0 -8 8 -7 7 2 12 -3
10 -10 -1 -8 1 -11 6 -8 12 7 74 -58 65 -68 -5 -4 -3 -7 2 -5 16 4 45 -12 39
-22 -3 -5 0 -9 6 -9 18 0 100 -73 93 -83 -3 -6 -1 -7 5 -4 15 10 42 -3 42 -19
0 -8 9 -14 19 -14 11 0 27 -10 36 -22 8 -13 16 -22 18 -21 6 6 47 -10 47 -19
0 -5 4 -6 10 -3 5 3 10 2 10 -4 0 -5 16 -15 35 -22 19 -7 35 -17 35 -21 0 -4
7 -8 16 -8 8 0 13 -4 10 -9 -3 -4 6 -7 19 -5 14 1 25 -2 25 -7 0 -5 9 -9 20
-9 12 0 20 -7 21 -17 0 -10 3 -13 5 -6 5 12 18 9 79 -18 11 -5 31 -11 44 -14
12 -2 29 -9 37 -16 8 -7 14 -7 14 -1 0 6 15 4 38 -4 20 -7 50 -13 65 -14 16 0
26 -3 23 -8 -2 -4 14 -6 36 -4 32 4 39 2 32 -9 -6 -10 -3 -10 11 1 17 13 18
13 13 -1 -4 -9 -1 -16 8 -16 7 0 11 4 8 8 -2 4 0 10 6 14 5 3 10 2 10 -2 0 -5
27 -8 60 -8 48 1 59 -2 55 -14 -5 -12 -3 -12 11 0 18 15 53 19 60 7 3 -4 11
-5 17 -1 17 11 67 11 67 0 0 -5 8 -3 17 4 15 12 16 12 8 -1 -6 -12 -5 -13 6
-2 7 6 17 12 22 12 4 0 5 -6 1 -12 -6 -10 -4 -10 7 -2 8 6 21 11 29 12 16 0
71 7 135 17 22 4 54 8 70 11 17 2 42 6 58 9 15 3 38 7 52 9 14 2 28 6 32 10 3
3 13 0 21 -7 13 -9 14 -9 8 1 -4 6 -3 12 1 12 5 0 15 -6 22 -12 10 -11 11 -10
6 3 -5 13 -1 16 19 14 15 -2 26 2 26 8 0 7 5 5 10 -3 5 -8 10 -10 10 -4 0 11
107 39 147 38 12 0 20 2 17 5 -9 9 70 28 105 25 21 -1 29 1 21 6 -9 6 -6 10
11 16 13 4 31 8 39 9 8 1 32 9 54 18 44 19 49 20 42 9 -3 -5 1 -9 8 -9 9 0 12
7 8 16 -3 9 -1 13 3 8 5 -4 18 -1 29 6 32 21 133 57 140 50 3 -4 6 -1 6 6 0 8
6 11 16 7 8 -3 13 -2 10 3 -7 10 52 34 64 26 4 -3 7 3 6 13 0 10 6 16 16 16
10 -1 16 1 13 5 -2 4 9 20 26 35 16 15 29 32 29 37 0 5 7 9 16 9 8 0 12 5 8
11 -3 6 -2 14 4 18 14 9 62 111 62 133 0 10 4 18 10 18 5 0 9 8 8 18 -3 44 2
73 14 66 7 -5 8 -3 2 7 -4 8 -10 34 -11 59 -5 90 -9 136 -14 145 -3 6 -5 30
-5 55 1 25 -2 47 -5 50 -4 3 -10 32 -13 65 -10 84 -16 127 -22 148 -3 10 0 17
8 17 9 0 10 2 1 8 -11 7 -16 32 -29 157 -4 33 -10 67 -15 76 -5 9 -5 19 -2 23
11 11 12 37 2 30 -6 -3 -9 9 -9 28 1 18 -1 47 -5 63 -12 54 -13 60 -1 74 8 11
8 13 -1 7 -9 -5 -13 0 -14 16 -4 64 -5 74 -10 83 -3 6 -5 31 -5 57 1 27 -3 48
-8 48 -4 0 -6 7 -3 15 4 8 2 17 -2 20 -5 2 -7 18 -6 35 1 17 -1 33 -6 36 -5 3
-7 9 -4 13 2 5 0 37 -6 72 -6 35 -13 84 -14 109 -2 25 -6 56 -9 70 -5 23 -12
79 -21 159 -17 148 -56 240 -132 316 -182 182 -467 166 -639 -37 -24 -28 -74
-130 -74 -151 0 -7 -3 -17 -7 -20 -10 -10 -10 -70 -1 -84 6 -7 3 -15 -9 -22
-12 -7 -13 -10 -4 -11 9 0 12 -10 9 -34 -2 -19 0 -32 4 -30 7 5 10 -12 12 -71
0 -11 3 -22 7 -25 4 -3 10 -25 13 -50 10 -68 13 -88 25 -138 6 -26 12 -59 14
-74 2 -15 6 -30 10 -34 12 -12 8 -26 -5 -18 -10 6 -10 4 0 -8 7 -9 15 -33 17
-53 3 -20 8 -41 11 -46 3 -5 -1 -9 -8 -10 -7 0 -4 -4 7 -9 11 -5 14 -9 7 -9
-9 -1 -10 -6 -3 -20 6 -10 7 -21 4 -25 -3 -3 -1 -6 4 -6 6 0 10 -11 8 -25 -1
-14 1 -28 6 -30 4 -3 6 -14 4 -25 -2 -11 1 -22 6 -25 5 -4 7 -11 3 -16 -3 -5
0 -16 6 -24 10 -11 10 -15 1 -15 -7 0 -9 -5 -4 -12 4 -7 8 -15 9 -18 0 -3 4
-16 8 -30 10 -37 14 -120 6 -125 -4 -3 -6 -16 -5 -30 2 -14 0 -25 -5 -25 -5 0
-7 -8 -6 -17 2 -10 -3 -31 -9 -48 -7 -16 -10 -36 -8 -42 3 -7 0 -13 -7 -13 -6
0 -8 -4 -5 -10 3 -5 1 -10 -5 -10 -6 0 -9 -4 -5 -9 6 -11 -39 -135 -66 -181
-5 -8 -13 -24 -18 -35 -11 -24 -78 -89 -106 -102 -49 -25 -192 -46 -305 -47
-242 0 -427 74 -599 242 -69 67 -163 195 -201 275 -11 23 -25 49 -30 57 -13
21 -52 111 -55 130 -2 8 -4 16 -5 18 -2 1 -3 5 -5 10 -1 4 -9 24 -18 44 -10
21 -18 45 -20 55 -2 10 -9 28 -15 41 -7 12 -11 22 -8 22 3 0 -1 20 -8 45 -8
25 -12 45 -9 45 3 0 1 6 -5 13 -9 11 -22 58 -27 97 -1 8 -5 22 -8 30 -11 29
-25 114 -21 122 3 4 1 8 -4 8 -5 0 -8 18 -8 40 1 22 -2 40 -5 40 -3 0 -6 6 -7
13 -1 6 -3 23 -6 37 -2 14 -7 45 -10 70 -3 25 -8 56 -11 70 -3 14 -8 54 -11
90 -3 36 -7 81 -10 100 -5 46 -16 265 -16 310 1 172 4 202 23 197 11 -3 17 -1
13 4 -3 5 -12 9 -20 9 -11 0 -13 6 -9 20 3 11 7 33 7 50 1 16 5 27 9 24 5 -3
5 5 0 18 -8 24 -4 51 7 44 4 -2 8 12 8 32 1 21 4 48 7 62 3 14 6 31 6 38 1 7
6 10 13 6 7 -4 8 -3 4 5 -9 14 3 73 13 66 5 -2 6 7 3 20 -2 14 0 25 6 25 6 0
9 8 7 18 -1 9 3 24 11 32 7 8 12 17 12 20 -3 15 15 49 23 45 5 -3 6 1 3 10 -4
9 1 22 12 31 11 9 12 13 4 9 -13 -6 -13 -5 0 7 8 7 15 18 15 23 0 6 11 27 24
48 23 37 24 38 45 20 l21 -18 -19 22 c-19 23 -18 29 19 69 6 6 19 22 29 37 11
14 24 23 29 20 6 -3 7 -2 4 4 -3 5 19 34 50 63 31 30 52 47 48 39 -5 -8 8 3
30 24 21 21 44 36 51 33 8 -3 11 0 8 8 -5 12 59 48 80 46 5 -1 12 4 17 12 5 7
12 13 16 13 4 1 19 7 33 15 14 7 27 13 30 13 8 -1 32 7 72 24 20 8 41 12 47 9
6 -4 11 -2 11 3 0 6 7 11 16 11 8 0 13 -4 10 -9 -3 -4 12 0 32 10 22 11 64 20
99 22 34 1 59 5 57 9 -3 4 18 6 46 5 27 -1 52 3 54 8 2 6 7 7 11 3 4 -4 2 -14
-4 -22 -9 -11 -9 -16 0 -22 7 -4 9 -3 6 3 -11 18 26 40 63 37 19 -1 63 -3 97
-5 42 -1 60 -5 56 -13 -4 -6 1 -5 10 3 9 7 17 9 17 4 0 -5 12 -9 28 -9 69 -2
106 -11 113 -30 7 -17 8 -17 8 -1 1 9 8 17 17 17 9 0 12 -5 8 -12 -5 -9 -2 -9
9 1 9 7 17 11 17 8 0 -3 16 -1 35 3 24 5 35 4 35 -4 0 -7 3 -7 8 1 4 7 17 14
27 16 11 2 33 9 48 15 16 7 33 12 38 12 5 0 9 5 9 10 0 6 6 10 13 10 7 0 32
16 54 35 22 19 44 31 48 27 3 -4 5 0 3 8 -2 8 2 14 9 13 7 -2 10 3 7 11 -3 8
4 24 15 35 12 12 22 24 22 29 3 18 12 32 18 28 3 -2 5 10 5 27 -1 18 2 42 7
54 7 19 22 118 22 151 0 6 4 12 8 12 4 0 6 8 4 19 -2 10 -6 35 -9 55 -12 72
-55 130 -126 166 -45 23 -174 66 -225 75 -22 4 -49 9 -60 12 -11 2 -38 6 -60
9 -22 3 -51 7 -65 9 -136 25 -573 25 -696 1 -12 -2 -39 -7 -60 -11 -77 -12
-100 -16 -139 -26 -22 -6 -47 -12 -56 -14 -116 -23 -473 -177 -510 -221 -6 -7
-15 -11 -20 -8 -5 3 -9 0 -9 -5 0 -6 -6 -11 -14 -11 -8 0 -16 -4 -18 -9 -1 -5
-9 -11 -17 -13 -7 -2 -23 -11 -35 -21 -11 -10 -50 -42 -86 -70 -36 -29 -67
-55 -68 -60 -2 -4 -8 -5 -13 -1 -5 3 -9 0 -9 -5 0 -6 -28 -39 -62 -74 -35 -35
-76 -81 -93 -101 -16 -21 -36 -44 -42 -51 -7 -8 -13 -19 -13 -25 0 -6 -7 -13
-15 -16 -8 -4 -15 -10 -15 -15 0 -5 -21 -42 -48 -82 -58 -89 -165 -302 -187
-375 -3 -12 -11 -20 -16 -17 -5 3 -6 0 -3 -8 3 -8 -2 -31 -10 -52 -9 -21 -16
-46 -16 -56 0 -11 -4 -19 -10 -19 -5 0 -10 -13 -10 -28 0 -16 -3 -32 -7 -36
-4 -4 -8 -13 -9 -19 -2 -35 -18 -97 -24 -97 -4 0 -7 18 -6 39 1 22 -2 37 -6
35 -4 -3 -8 11 -8 30 0 20 -1 39 -2 44 -16 61 -23 143 -14 153 8 9 8 10 -1 5
-7 -4 -12 1 -12 11 -1 26 -8 93 -14 128 -10 52 -19 121 -22 161 -2 22 -6 50
-9 63 -4 18 2 31 24 53 17 15 30 25 30 22 0 -4 11 5 25 20 14 15 25 25 25 22
0 -3 10 5 23 17 38 36 77 67 77 61 0 -3 12 8 26 25 14 17 30 31 35 31 5 0 26
17 46 38 20 20 39 37 42 37 6 -1 26 15 68 53 21 19 28 21 41 10 15 -11 15 -11
5 3 -11 13 -9 19 7 34 11 10 20 15 20 12 0 -4 15 9 34 28 19 18 37 31 40 28 3
-4 6 -1 6 6 0 8 6 11 16 7 8 -3 13 -2 10 3 -8 13 51 64 65 56 7 -5 10 -4 6 2
-8 13 34 63 51 63 7 0 10 4 7 10 -5 9 29 67 48 81 5 3 8 9 8 13 -1 3 6 22 14
42 8 20 15 42 15 49 0 6 3 15 8 19 7 8 9 14 11 47 0 12 5 17 12 13 8 -5 8 -1
0 13 -6 11 -8 23 -5 26 12 11 13 67 1 67 -8 0 -8 3 -2 8 11 8 13 37 3 47 -4 4
-4 13 -2 20 11 29 -44 187 -91 260 -39 61 -150 160 -217 193 -105 51 -239 69
-357 47 -73 -13 -265 -121 -279 -157 -2 -4 -8 -8 -13 -8 -6 0 -20 -11 -33 -25
-26 -28 -41 -33 -32 -10 3 8 2 15 -2 15 -4 0 -8 12 -8 28 -1 15 -4 36 -7 48
-10 38 -11 89 -3 103 7 10 5 12 -4 6 -10 -6 -12 -3 -8 13 4 12 3 22 -1 22 -3
0 -7 17 -8 38 -2 39 -8 86 -17 137 -3 17 -8 53 -12 80 -23 181 -136 340 -302
424 -90 46 -235 68 -327 50z"/>
<path d="M5076 5958 c3 -5 10 -6 15 -3 13 9 11 12 -6 12 -8 0 -12 -4 -9 -9z"/>
<path d="M5136 5938 c3 -5 10 -6 15 -3 13 9 11 12 -6 12 -8 0 -12 -4 -9 -9z"/>
<path d="M4959 5868 c-5 -18 -6 -38 -1 -34 7 8 12 36 6 36 -2 0 -4 -1 -5 -2z"/>
<path d="M4839 5753 c-13 -16 -12 -17 4 -4 16 13 21 21 13 21 -2 0 -10 -8 -17
-17z"/>
<path d="M4947 5719 c7 -7 15 -10 18 -7 3 3 -2 9 -12 12 -14 6 -15 5 -6 -5z"/>
<path d="M4853 5689 c-2 -23 3 -25 10 -4 4 8 3 16 -1 19 -4 3 -9 -4 -9 -15z"/>
<path d="M4753 5645 c0 -8 4 -15 9 -15 4 0 8 4 8 9 0 6 -4 12 -8 15 -5 3 -9
-1 -9 -9z"/>
<path d="M7267 5559 c7 -7 15 -10 18 -7 3 3 -2 9 -12 12 -14 6 -15 5 -6 -5z"/>
<path d="M7270 5519 c0 -5 5 -7 10 -4 6 3 10 8 10 11 0 2 -4 4 -10 4 -5 0 -10
-5 -10 -11z"/>
<path d="M4595 5499 c-3 -4 2 -6 10 -5 21 3 28 13 10 13 -9 0 -18 -4 -20 -8z"/>
<path d="M4510 5497 c0 -2 6 -10 14 -16 11 -9 16 -9 22 1 4 7 4 10 -1 6 -4 -4
-14 -3 -22 3 -7 6 -13 9 -13 6z"/>
<path d="M7220 5486 c0 -2 8 -10 18 -17 15 -13 16 -12 3 4 -13 16 -21 21 -21
13z"/>
<path d="M6553 5465 c0 -8 4 -12 9 -9 5 3 6 10 3 15 -9 13 -12 11 -12 -6z"/>
<path d="M6464 5462 c4 -3 14 -7 22 -8 9 -1 13 0 10 4 -4 3 -14 7 -22 8 -9 1
-13 0 -10 -4z"/>
<path d="M6293 5445 c0 -8 4 -15 9 -15 4 0 8 4 8 9 0 6 -4 12 -8 15 -5 3 -9
-1 -9 -9z"/>
<path d="M6335 5449 c-4 -6 -5 -12 -2 -15 2 -3 7 2 10 11 7 17 1 20 -8 4z"/>
<path d="M6853 5445 c0 -8 4 -15 9 -15 4 0 8 4 8 9 0 6 -4 12 -8 15 -5 3 -9
-1 -9 -9z"/>
<path d="M6985 5440 c-3 -6 1 -7 9 -4 18 7 21 14 7 14 -6 0 -13 -4 -16 -10z"/>
<path d="M4490 5419 c0 -5 5 -7 10 -4 6 3 10 8 10 11 0 2 -4 4 -10 4 -5 0 -10
-5 -10 -11z"/>
<path d="M6160 5420 c-9 -6 -10 -10 -3 -10 6 0 15 5 18 10 8 12 4 12 -15 0z"/>
<path d="M6627 5419 c7 -7 15 -10 18 -7 3 3 -2 9 -12 12 -14 6 -15 5 -6 -5z"/>
<path d="M6869 5403 c-13 -16 -12 -17 4 -4 9 7 17 15 17 17 0 8 -8 3 -21 -13z"/>
<path d="M6190 5401 c0 -6 4 -13 10 -16 6 -3 7 1 4 9 -7 18 -14 21 -14 7z"/>
<path d="M6835 5401 c-3 -5 -2 -12 3 -15 5 -3 9 1 9 9 0 17 -3 19 -12 6z"/>
<path d="M7040 5400 c-9 -6 -10 -10 -3 -10 6 0 15 5 18 10 8 12 4 12 -15 0z"/>
<path d="M6155 5391 c-3 -5 -2 -12 3 -15 5 -3 9 1 9 9 0 17 -3 19 -12 6z"/>
<path d="M6575 5391 c-3 -5 -2 -12 3 -15 5 -3 9 1 9 9 0 17 -3 19 -12 6z"/>
<path d="M6693 5385 c0 -8 4 -12 9 -9 5 3 6 10 3 15 -9 13 -12 11 -12 -6z"/>
<path d="M6233 5375 c0 -8 4 -12 9 -9 5 3 6 10 3 15 -9 13 -12 11 -12 -6z"/>
<path d="M6370 5380 c0 -5 5 -10 11 -10 5 0 7 5 4 10 -3 6 -8 10 -11 10 -2 0
-4 -4 -4 -10z"/>
<path d="M6430 5385 c0 -7 30 -13 34 -7 3 4 -4 9 -15 9 -10 1 -19 0 -19 -2z"/>
<path d="M7115 5380 c3 -5 8 -10 11 -10 2 0 4 5 4 10 0 6 -5 10 -11 10 -5 0
-7 -4 -4 -10z"/>
<path d="M6190 5359 c0 -5 5 -7 10 -4 6 3 10 8 10 11 0 2 -4 4 -10 4 -5 0 -10
-5 -10 -11z"/>
<path d="M6959 5353 c-13 -16 -12 -17 4 -4 9 7 17 15 17 17 0 8 -8 3 -21 -13z"/>
<path d="M7075 5360 c-3 -5 -1 -10 4 -10 6 0 11 5 11 10 0 6 -2 10 -4 10 -3 0
-8 -4 -11 -10z"/>
<path d="M6995 5351 c-3 -5 -2 -12 3 -15 5 -3 9 1 9 9 0 17 -3 19 -12 6z"/>
<path d="M6236 5335 c-9 -26 -7 -32 5 -12 6 10 9 21 6 23 -2 3 -7 -2 -11 -11z"/>
<path d="M5914 5306 c1 -8 5 -18 8 -22 4 -3 5 1 4 10 -1 8 -5 18 -8 22 -4 3
-5 -1 -4 -10z"/>
<path d="M6050 5300 c0 -5 5 -10 11 -10 5 0 7 5 4 10 -3 6 -8 10 -11 10 -2 0
-4 -4 -4 -10z"/>
<path d="M6013 5255 c0 -8 4 -12 9 -9 5 3 6 10 3 15 -9 13 -12 11 -12 -6z"/>
<path d="M5886 5222 c-3 -5 1 -9 9 -9 8 0 12 4 9 9 -3 4 -7 8 -9 8 -2 0 -6 -4
-9 -8z"/>
<path d="M5935 5219 c-3 -4 2 -6 10 -5 21 3 28 13 10 13 -9 0 -18 -4 -20 -8z"/>
<path d="M5850 5180 c0 -5 5 -10 11 -10 5 0 7 5 4 10 -3 6 -8 10 -11 10 -2 0
-4 -4 -4 -10z"/>
<path d="M5796 5122 c-3 -5 1 -9 9 -9 8 0 12 4 9 9 -3 4 -7 8 -9 8 -2 0 -6 -4
-9 -8z"/>
<path d="M5590 4961 c0 -6 4 -12 8 -15 5 -3 9 1 9 9 0 8 -4 15 -9 15 -4 0 -8
-4 -8 -9z"/>
<path d="M5506 4678 c3 -5 10 -6 15 -3 13 9 11 12 -6 12 -8 0 -12 -4 -9 -9z"/>
<path d="M3379 4553 c-13 -16 -12 -17 4 -4 16 13 21 21 13 21 -2 0 -10 -8 -17
-17z"/>
<path d="M3340 4526 c0 -2 8 -10 18 -17 15 -13 16 -12 3 4 -13 16 -21 21 -21
13z"/>
<path d="M3306 4502 c-3 -5 1 -9 9 -9 8 0 15 4 15 9 0 4 -4 8 -9 8 -6 0 -12
-4 -15 -8z"/>
<path d="M3356 4478 c3 -5 10 -6 15 -3 13 9 11 12 -6 12 -8 0 -12 -4 -9 -9z"/>
<path d="M3267 4459 c7 -7 15 -10 18 -7 3 3 -2 9 -12 12 -14 6 -15 5 -6 -5z"/>
<path d="M3226 4441 c-3 -5 2 -8 12 -7 9 0 16 -5 14 -12 -1 -8 2 -11 8 -7 8 5
7 11 -1 21 -13 16 -25 18 -33 5z"/>
<path d="M3410 4419 c0 -5 5 -7 10 -4 6 3 10 8 10 11 0 2 -4 4 -10 4 -5 0 -10
-5 -10 -11z"/>
<path d="M3234 4382 c4 -3 14 -7 22 -8 9 -1 13 0 10 4 -4 3 -14 7 -22 8 -9 1
-13 0 -10 -4z"/>
<path d="M3039 4273 c-13 -16 -12 -17 4 -4 16 13 21 21 13 21 -2 0 -10 -8 -17
-17z"/>
<path d="M2907 4159 c7 -7 15 -10 18 -7 3 3 -2 9 -12 12 -14 6 -15 5 -6 -5z"/>
<path d="M2835 4111 c-3 -5 -2 -12 3 -15 5 -3 9 1 9 9 0 17 -3 19 -12 6z"/>
<path d="M2793 4085 c0 -8 4 -12 9 -9 5 3 6 10 3 15 -9 13 -12 11 -12 -6z"/>
<path d="M2950 4086 c0 -2 7 -7 16 -10 8 -3 12 -2 9 4 -6 10 -25 14 -25 6z"/>
<path d="M2835 4049 c-4 -6 -5 -12 -2 -15 2 -3 7 2 10 11 7 17 1 20 -8 4z"/>
<path d="M2770 4039 c0 -5 5 -7 10 -4 6 3 10 8 10 11 0 2 -4 4 -10 4 -5 0 -10
-5 -10 -11z"/>
<path d="M2683 3962 c10 -10 14 -22 10 -27 -5 -4 -2 -5 5 -1 11 6 10 12 -4 27
-9 10 -19 19 -22 19 -3 0 2 -8 11 -18z"/>
<path d="M2655 3900 c-3 -5 -1 -10 4 -10 6 0 11 5 11 10 0 6 -2 10 -4 10 -3 0
-8 -4 -11 -10z"/>
<path d="M2550 3880 c0 -4 7 -7 15 -6 23 3 26 12 5 13 -11 1 -20 -2 -20 -7z"/>
<path d="M2490 3841 c0 -6 4 -13 10 -16 6 -3 7 1 4 9 -7 18 -14 21 -14 7z"/>
<path d="M2345 3720 c3 -5 11 -10 16 -10 6 0 7 5 4 10 -3 6 -11 10 -16 10 -6
0 -7 -4 -4 -10z"/>
<path d="M2349 3683 c-13 -16 -12 -17 4 -4 9 7 17 15 17 17 0 8 -8 3 -21 -13z"/>
<path d="M2246 3582 c-3 -5 1 -9 9 -9 8 0 12 4 9 9 -3 4 -7 8 -9 8 -2 0 -6 -4
-9 -8z"/>
<path d="M2196 3398 c3 -5 10 -6 15 -3 13 9 11 12 -6 12 -8 0 -12 -4 -9 -9z"/>
<path d="M340 2760 c-8 -5 -10 -10 -5 -10 6 0 17 5 25 10 8 5 11 10 5 10 -5 0
-17 -5 -25 -10z"/>
<path d="M397 2693 c-10 -9 -9 -23 1 -23 5 0 9 7 9 15 0 17 -1 18 -10 8z"/>
<path d="M6996 2647 c3 -10 9 -15 12 -12 3 3 0 11 -7 18 -10 9 -11 8 -5 -6z"/>
<path d="M495 2620 c3 -5 8 -10 11 -10 2 0 4 5 4 10 0 6 -5 10 -11 10 -5 0 -7
-4 -4 -10z"/>
<path d="M1005 2599 c-3 -4 2 -6 10 -5 21 3 28 13 10 13 -9 0 -18 -4 -20 -8z"/>
<path d="M720 2580 c-9 -6 -10 -10 -3 -10 6 0 15 5 18 10 8 12 4 12 -15 0z"/>
<path d="M440 2566 c0 -2 8 -10 18 -17 15 -13 16 -12 3 4 -13 16 -21 21 -21
13z"/>
<path d="M555 2561 c-3 -5 -2 -12 3 -15 5 -3 9 1 9 9 0 17 -3 19 -12 6z"/>
<path d="M636 2527 c3 -10 9 -15 12 -12 3 3 0 11 -7 18 -10 9 -11 8 -5 -6z"/>
<path d="M771 2507 c2 -1 13 -9 24 -17 19 -14 19 -14 6 3 -7 9 -18 17 -24 17
-6 0 -8 -1 -6 -3z"/>
<path d="M627 2479 c7 -7 15 -10 18 -7 3 3 -2 9 -12 12 -14 6 -15 5 -6 -5z"/>
<path d="M2236 2133 c-6 -14 -5 -15 5 -6 7 7 10 15 7 18 -3 3 -9 -2 -12 -12z"/>
<path d="M4916 2097 c3 -10 9 -15 12 -12 3 3 0 11 -7 18 -10 9 -11 8 -5 -6z"/>
<path d="M2170 2006 c0 -2 7 -7 16 -10 8 -3 12 -2 9 4 -6 10 -25 14 -25 6z"/>
<path d="M4930 1939 c0 -5 5 -7 10 -4 6 3 10 8 10 11 0 2 -4 4 -10 4 -5 0 -10
-5 -10 -11z"/>
<path d="M2150 1936 c0 -2 8 -10 18 -17 15 -13 16 -12 3 4 -13 16 -21 21 -21
13z"/>
<path d="M4995 1859 c-3 -4 2 -6 10 -5 21 3 28 13 10 13 -9 0 -18 -4 -20 -8z"/>
<path d="M5076 1847 c3 -10 9 -15 12 -12 3 3 0 11 -7 18 -10 9 -11 8 -5 -6z"/>
<path d="M1236 1833 c-6 -14 -5 -15 5 -6 7 7 10 15 7 18 -3 3 -9 -2 -12 -12z"/>
<path d="M1370 1820 c0 -5 5 -10 11 -10 5 0 7 5 4 10 -3 6 -8 10 -11 10 -2 0
-4 -4 -4 -10z"/>
<path d="M2035 1820 c-3 -5 -1 -10 4 -10 6 0 11 5 11 10 0 6 -2 10 -4 10 -3 0
-8 -4 -11 -10z"/>
<path d="M1375 1791 c-3 -5 -2 -12 3 -15 5 -3 9 1 9 9 0 17 -3 19 -12 6z"/>
<path d="M1496 1758 c3 -5 10 -6 15 -3 13 9 11 12 -6 12 -8 0 -12 -4 -9 -9z"/>
<path d="M1375 1739 c-3 -4 2 -6 10 -5 21 3 28 13 10 13 -9 0 -18 -4 -20 -8z"/>
<path d="M1976 1742 c-3 -5 1 -9 9 -9 8 0 12 4 9 9 -3 4 -7 8 -9 8 -2 0 -6 -4
-9 -8z"/>
<path d="M1795 1719 c-3 -4 2 -6 10 -5 21 3 28 13 10 13 -9 0 -18 -4 -20 -8z"/>
<path d="M1535 1700 c3 -5 8 -10 11 -10 2 0 4 5 4 10 0 6 -5 10 -11 10 -5 0
-7 -4 -4 -10z"/>
<path d="M1876 1678 c3 -5 10 -6 15 -3 13 9 11 12 -6 12 -8 0 -12 -4 -9 -9z"/>
<path d="M1676 1642 c-3 -5 1 -9 9 -9 8 0 12 4 9 9 -3 4 -7 8 -9 8 -2 0 -6 -4
-9 -8z"/>
<path d="M7854 1642 c4 -3 14 -7 22 -8 9 -1 13 0 10 4 -4 3 -14 7 -22 8 -9 1
-13 0 -10 -4z"/>
<path d="M5256 1573 c-6 -14 -5 -15 5 -6 7 7 10 15 7 18 -3 3 -9 -2 -12 -12z"/>
<path d="M5294 1542 c4 -3 14 -7 22 -8 9 -1 13 0 10 4 -4 3 -14 7 -22 8 -9 1
-13 0 -10 -4z"/>
<path d="M5375 1500 c3 -5 8 -10 11 -10 2 0 4 5 4 10 0 6 -5 10 -11 10 -5 0
-7 -4 -4 -10z"/>
<path d="M7655 1489 c-4 -6 -5 -12 -2 -15 2 -3 7 2 10 11 7 17 1 20 -8 4z"/>
<path d="M5410 1460 c0 -5 5 -10 11 -10 5 0 7 5 4 10 -3 6 -8 10 -11 10 -2 0
-4 -4 -4 -10z"/>
<path d="M7606 1438 c3 -5 10 -6 15 -3 13 9 11 12 -6 12 -8 0 -12 -4 -9 -9z"/>
<path d="M7716 1438 c3 -5 10 -6 15 -3 13 9 11 12 -6 12 -8 0 -12 -4 -9 -9z"/>
<path d="M5395 1411 c-3 -5 -2 -12 3 -15 5 -3 9 1 9 9 0 17 -3 19 -12 6z"/>
<path d="M7453 1405 c0 -8 4 -12 9 -9 5 3 6 10 3 15 -9 13 -12 11 -12 -6z"/>
<path d="M7486 1402 c-2 -4 4 -8 14 -8 10 0 16 4 14 8 -3 4 -9 8 -14 8 -5 0
-11 -4 -14 -8z"/>
<path d="M7347 1379 c7 -7 15 -10 18 -7 3 3 -2 9 -12 12 -14 6 -15 5 -6 -5z"/>
<path d="M7476 1367 c3 -10 9 -15 12 -12 3 3 0 11 -7 18 -10 9 -11 8 -5 -6z"/>
<path d="M5577 1355 c-4 -8 -3 -16 1 -19 4 -3 9 4 9 15 2 23 -3 25 -10 4z"/>
<path d="M5667 1359 c7 -7 15 -10 18 -7 3 3 -2 9 -12 12 -14 6 -15 5 -6 -5z"/>
<path d="M7259 1353 c-12 -16 -12 -17 2 -6 9 7 20 9 24 5 5 -4 5 -1 1 6 -9 16
-11 15 -27 -5z"/>
<path d="M7313 1352 c2 -12 6 -24 10 -28 3 -4 4 4 2 16 -6 30 -16 40 -12 12z"/>
<path d="M7513 1355 c0 -8 4 -12 9 -9 5 3 6 10 3 15 -9 13 -12 11 -12 -6z"/>
<path d="M7545 1360 c-3 -6 1 -7 9 -4 18 7 21 14 7 14 -6 0 -13 -4 -16 -10z"/>
<path d="M5635 1351 c-3 -5 -2 -12 3 -15 5 -3 9 1 9 9 0 17 -3 19 -12 6z"/>
<path d="M5720 1340 c-9 -6 -10 -10 -3 -10 6 0 15 5 18 10 8 12 4 12 -15 0z"/>
<path d="M7135 1329 c-4 -6 -5 -12 -2 -15 2 -3 7 2 10 11 7 17 1 20 -8 4z"/>
<path d="M7176 1327 c3 -10 9 -15 12 -12 3 3 0 11 -7 18 -10 9 -11 8 -5 -6z"/>
<path d="M5487 1319 c7 -7 15 -10 18 -7 3 3 -2 9 -12 12 -14 6 -15 5 -6 -5z"/>
<path d="M7080 1326 c0 -2 8 -10 18 -17 15 -13 16 -12 3 4 -13 16 -21 21 -21
13z"/>
<path d="M5656 1298 c3 -5 10 -6 15 -3 13 9 11 12 -6 12 -8 0 -12 -4 -9 -9z"/>
<path d="M5755 1301 c-3 -5 -2 -12 3 -15 5 -3 9 1 9 9 0 17 -3 19 -12 6z"/>
<path d="M7430 1300 c0 -5 5 -10 11 -10 5 0 7 5 4 10 -3 6 -8 10 -11 10 -2 0
-4 -4 -4 -10z"/>
<path d="M6993 1285 c0 -8 4 -12 9 -9 5 3 6 10 3 15 -9 13 -12 11 -12 -6z"/>
<path d="M7070 1278 c0 -4 4 -8 9 -8 6 0 12 4 15 8 3 5 -1 9 -9 9 -8 0 -15 -4
-15 -9z"/>
<path d="M6875 1271 c-3 -5 -2 -12 3 -15 5 -3 9 1 9 9 0 17 -3 19 -12 6z"/>
<path d="M5586 1258 c3 -5 10 -6 15 -3 13 9 11 12 -6 12 -8 0 -12 -4 -9 -9z"/>
<path d="M6920 1260 c-9 -6 -10 -10 -3 -10 6 0 15 5 18 10 8 12 4 12 -15 0z"/>
<path d="M7170 1260 c0 -5 5 -10 11 -10 5 0 7 5 4 10 -3 6 -8 10 -11 10 -2 0
-4 -4 -4 -10z"/>
<path d="M5755 1240 c-3 -5 -1 -10 4 -10 6 0 11 5 11 10 0 6 -2 10 -4 10 -3 0
-8 -4 -11 -10z"/>
<path d="M5815 1221 c-3 -5 -2 -12 3 -15 5 -3 9 1 9 9 0 17 -3 19 -12 6z"/>
<path d="M6745 1220 c-3 -6 1 -7 9 -4 18 7 21 14 7 14 -6 0 -13 -4 -16 -10z"/>
<path d="M6335 1209 c-4 -6 -5 -12 -2 -15 2 -3 7 2 10 11 7 17 1 20 -8 4z"/>
<path d="M6376 1207 c3 -10 9 -15 12 -12 3 3 0 11 -7 18 -10 9 -11 8 -5 -6z"/>
<path d="M6869 1203 c-13 -16 -12 -17 4 -4 9 7 17 15 17 17 0 8 -8 3 -21 -13z"/>
<path d="M6250 1199 c0 -5 5 -7 10 -4 6 3 10 8 10 11 0 2 -4 4 -10 4 -5 0 -10
-5 -10 -11z"/>
<path d="M5973 1185 c0 -8 4 -12 9 -9 5 3 6 10 3 15 -9 13 -12 11 -12 -6z"/>
<path d="M6815 1179 c-3 -4 2 -6 10 -5 21 3 28 13 10 13 -9 0 -18 -4 -20 -8z"/>
<path d="M6897 1183 c-9 -8 12 -33 27 -33 6 0 3 5 -7 11 -9 6 -15 14 -12 20 7
10 2 12 -8 2z"/>
<path d="M6375 1160 c2 -27 10 -33 12 -10 1 11 -2 22 -6 24 -4 3 -7 -4 -6 -14z"/>
<path d="M6196 1162 c-3 -5 1 -9 9 -9 8 0 12 4 9 9 -3 4 -7 8 -9 8 -2 0 -6 -4
-9 -8z"/>
<path d="M6430 1156 c7 -7 13 -7 20 0 6 6 3 10 -10 10 -13 0 -16 -4 -10 -10z"/>
<path d="M6255 1151 c-3 -5 -2 -12 3 -15 5 -3 9 1 9 9 0 17 -3 19 -12 6z"/>
<path d="M6036 1133 c-6 -14 -5 -15 5 -6 7 7 10 15 7 18 -3 3 -9 -2 -12 -12z"/>
<path d="M6335 1140 c-3 -5 -1 -10 4 -10 6 0 11 5 11 10 0 6 -2 10 -4 10 -3 0
-8 -4 -11 -10z"/>
<path d="M6616 1138 c3 -5 10 -6 15 -3 13 9 11 12 -6 12 -8 0 -12 -4 -9 -9z"/>
<path d="M6430 1119 c0 -5 5 -7 10 -4 6 3 10 8 10 11 0 2 -4 4 -10 4 -5 0 -10
-5 -10 -11z"/>
<path d="M6760 1126 c0 -2 8 -10 18 -17 15 -13 16 -12 3 4 -13 16 -21 21 -21
13z"/>
<path d="M3973 785 c0 -8 4 -12 9 -9 5 3 6 10 3 15 -9 13 -12 11 -12 -6z"/>
<path d="M4855 699 c-3 -4 2 -6 10 -5 21 3 28 13 10 13 -9 0 -18 -4 -20 -8z"/>
<path d="M4759 673 c-13 -16 -12 -17 4 -4 16 13 21 21 13 21 -2 0 -10 -8 -17
-17z"/>
<path d="M4745 640 c-3 -6 1 -7 9 -4 18 7 21 14 7 14 -6 0 -13 -4 -16 -10z"/>
<path d="M4096 622 c-3 -4 4 -9 15 -9 23 -2 25 3 4 10 -8 4 -16 3 -19 -1z"/>
<path d="M4310 596 c0 -2 8 -10 18 -17 15 -13 16 -12 3 4 -13 16 -21 21 -21
13z"/>
<path d="M4549 583 c-13 -16 -12 -17 4 -4 16 13 21 21 13 21 -2 0 -10 -8 -17
-17z"/>
<path d="M4135 580 c3 -5 8 -10 11 -10 2 0 4 5 4 10 0 6 -5 10 -11 10 -5 0 -7
-4 -4 -10z"/>
<path d="M4493 567 c0 -8 6 -14 14 -14 9 0 10 4 2 14 -6 7 -12 13 -14 13 -1 0
-2 -6 -2 -13z"/>
<path d="M4616 567 c3 -10 9 -15 12 -12 3 3 0 11 -7 18 -10 9 -11 8 -5 -6z"/>
<path d="M4450 555 c5 -7 6 -16 2 -21 -4 -5 -3 -5 2 -1 15 12 15 34 0 34 -9 0
-11 -4 -4 -12z"/>
<path d="M4170 539 c0 -5 5 -7 10 -4 6 3 10 8 10 11 0 2 -4 4 -10 4 -5 0 -10
-5 -10 -11z"/>
<path d="M4215 540 c3 -5 8 -10 11 -10 2 0 4 5 4 10 0 6 -5 10 -11 10 -5 0 -7
-4 -4 -10z"/>
<path d="M4520 540 c-9 -6 -10 -10 -3 -10 6 0 15 5 18 10 8 12 4 12 -15 0z"/>
</g>
</svg>
