<svg xmlns:dc="http://purl.org/dc/elements/1.1/" xmlns:cc="http://creativecommons.org/ns#" xmlns:rdf="http://www.w3.org/1999/02/22-rdf-syntax-ns#" xmlns:svg="http://www.w3.org/2000/svg" xmlns="http://www.w3.org/2000/svg" xmlns:sodipodi="http://sodipodi.sourceforge.net/DTD/sodipodi-0.dtd" xmlns:inkscape="http://www.inkscape.org/namespaces/inkscape" width="102.3716mm" height="144.49777mm" viewBox="0 0 362.73401 511.99998" id="svg3476" inkscape:version="0.91 r13725" sodipodi:docname="CSS3.svg"><defs id="defs3478" /><sodipodi:namedview id="base" pagecolor="#ffffff" bordercolor="#666666" borderopacity="1" inkscape:pageopacity="0" inkscape:pageshadow="2" inkscape:zoom=".35" inkscape:cx="181.367" inkscape:cy="256" inkscape:document-units="px" inkscape:current-layer="layer1" showgrid="false" fit-margin-top="0" fit-margin-left="0" fit-margin-right="0" fit-margin-bottom="0" inkscape:window-width="1366" inkscape:window-height="704" inkscape:window-x="0" inkscape:window-y="27" inkscape:window-maximized="1" /><g inkscape:label="Calque 1" inkscape:groupmode="layer" id="layer1" transform="translate(-193.633,-276.3622)"><g id="g3013" transform="translate(119,276.3622)"><path id="polygon2989" d="M437.367 100.62 404.321 470.819 255.778 512 107.644 470.877 74.633 100.62z" style="fill:#264de4" /><path id="polygon2991" d="M376.03 447.246 404.27 130.894H256V480.523z" style="fill:#2965f1" /><path id="polygon2993" d="M150.31 268.217 154.38 313.627H256V268.217z" style="fill:#ebebeb" /><path id="polygon2995" d="M256 176.305H255.843 142.132L146.26 221.716H256z" style="fill:#ebebeb" /><path id="polygon2997" d="M256 433.399V386.153L255.801 386.206 205.227 372.55 201.994 336.333H177.419 156.409L162.771 407.634 255.791 433.457z" style="fill:#ebebeb" /><path id="path2999" d="m160 0h55v23h-32v23h32v23h-55z" inkscape:connector-curvature="0" /><path id="path3001" d="m226 0h55v20h-32v4h32v46h-55V49h32v-4h-32z" inkscape:connector-curvature="0" /><path id="path3003" d="m292 0h55v20h-32v4h32v46h-55V49h32v-4h-32z" inkscape:connector-curvature="0" /><path id="polygon3005" d="M311.761 313.627 306.49 372.521 255.843 386.191V433.435L348.937 407.634 349.62 399.962 360.291 280.411 361.399 268.217 369.597 176.305H255.843v45.411H319.831L315.699 268.217H255.843V313.627z" style="fill:#fff" /></g></g></svg>