<svg xmlns="http://www.w3.org/2000/svg" xmlns:xlink="http://www.w3.org/1999/xlink" viewBox="23 6 469 132">
  <defs>
    <linearGradient id="a" x1="-3.49%" x2="100.83%" y1="17.02%" y2="92.9%">
      <stop offset="0%" stop-color="#fff" stop-opacity=".1"/>
      <stop offset="14%" stop-color="#fff" stop-opacity=".08"/>
      <stop offset="61%" stop-color="#fff" stop-opacity=".02"/>
      <stop offset="100%" stop-color="#fff" stop-opacity="0"/>
    </linearGradient>
    <path id="b" d="M106.687 35.2742c-.186-1.0977-.967-2-2.0244-2.338s-2.2148-.057-3.0002.73L86.2473 49.166l-12.12-23.1455c-.5133-.9786-1.525-1.5914-2.6273-1.5914s-2.114.6128-2.6273 1.5914l-6.6277 12.656L45.62 7.5726c-.603-1.1297-1.8588-1.746-3.118-1.5297s-2.2394 1.216-2.4335 2.4827L24 111.701l42.9727 24.1654c2.6985 1.5113 5.985 1.5113 8.6836 0L119 111.701l-12.313-76.427z"/>
  </defs>
  <path opacity=".54" d="M163.7732 106.5176H155V38.7654h39.8442v8.324h-31.07v22.244h28.025v8.1318h-28.025v29.0525zm47.5673-58.0015c-2.0914 2.085-5.3755 2.4125-7.843.7823s-3.4307-4.764-2.3-7.4837 4.0395-4.2678 6.9472-3.6968 5.0038 3.102 5.0058 6.044c.0282 1.6386-.6298 3.2154-1.8172 4.3542h.0074zm0 58.0015h-8.7732V60.152h8.7732v46.3658zm19.2518 0h-8.7732V60.152h8.386v7.57h.3798c1.013-2.6676 2.9584-4.8847 5.4814-6.2467 2.4094-1.5352 5.196-2.3866 8.0582-2.4617 2.247-.0634 4.4835.3238 6.5762 1.1384l-3.3365 8.1317a13.355 13.355 0 0 0-4.6696-.6653c-3.217.0162-6.2788 1.3736-8.438 3.7406-2.4477 2.4937-3.6716 5.7588-3.6716 9.795l.0074 25.3637zm44.149 1.4785c-7.0553 0-12.79-2.3336-17.2038-7s-6.6233-10.554-6.6283-17.6607c-.1296-6.3986 2.167-12.612 6.4347-17.4093 4.0874-4.775 10.1338-7.455 16.444-7.29 6.9262 0 12.472 2.24 16.6377 6.7198s6.246 10.4727 6.24 17.9786l-.0968 1.6116h-36.9024c.2532 4.667 1.827 8.3634 4.7217 11.0887 2.707 2.6374 6.358 4.1 10.15 4.066 6.2907 0 10.5482-2.65 12.7725-7.947l7.82 3.2157c-1.5846 3.666-4.1984 6.802-7.5294 9.0336-3.5 2.3952-7.7876 3.5928-12.862 3.5928zm12.5863-30.3092c-.1887-2.6514-1.4125-5.1747-3.6716-7.57s-5.618-3.568-10.0765-3.5188c-3.0924-.0538-6.0964 1.0253-8.438 3.031-2.4532 2.1338-4.1698 4.978-4.908 8.1317l27.094-.074zm41.0358 30.3092c-3.3194.0653-6.6022-.6972-9.5477-2.2177-2.5867-1.295-4.7755-3.2558-6.3378-5.6774h-.3798v6.4167h-8.3933V38.7654h8.7732V60.152l-.3798 6.4315h.3798c1.5623-2.4217 3.751-4.3825 6.3378-5.6774 2.941-1.5382 6.224-2.3186 9.5477-2.2695 6.0374 0 11.2507 2.3656 15.6398 7.0968s6.581 10.5984 6.5762 17.6015-2.192 12.8703-6.5762 17.6015-9.5974 7.0845-15.6398 7.0598zm-1.43-7.947c3.9965.0315 7.8147-1.64 10.486-4.5907 2.9244-3.0605 4.3866-7.114 4.3866-12.1607s-1.4622-9.1-4.3866-12.1607c-2.702-2.9154-6.5078-4.578-10.4987-4.5865s-7.8038 1.6382-10.5182 4.542c-2.8896 3.026-4.3345 7.0943-4.3345 12.205s1.4597 9.1913 4.379 12.242c2.688 2.9397 6.5166 4.5948 10.516 4.5464l-.0298-.037zm45.981 7.947c-4.965 0-9.1108-1.4194-12.4373-4.258s-4.9948-6.5916-5.0047-11.2588c0-5.0466 1.971-9.004 5.9133-11.8724s8.803-4.3024 14.5822-4.3024c5.1487 0 9.37.9462 12.6608 2.8387V77.82c.1257-3.1165-1.1712-6.123-3.53-8.1835-2.402-2.0534-5.493-3.1376-8.6615-3.0383-2.4248-.03-4.813.5898-6.9113 1.7964-1.9657 1.0808-3.4728 2.8288-4.245 4.9234l-8.006-3.408c1.0824-2.7845 3.2124-5.367 6.4-7.7473s7.373-3.5632 12.5863-3.5484c5.958 0 10.923 1.725 14.895 5.1747s5.943 8.3387 5.9133 14.6667v28.062h-8.4157v-6.4315h-.3798c-3.5 5.2733-8.6168 7.9-15.3493 7.9zm1.43-7.947c3.6866-.0128 7.2254-1.4406 9.8754-3.9846 2.8243-2.3633 4.4585-5.84 4.4685-9.5068-2.4825-2.0206-6.2063-3.031-11.1713-3.031-4.26 0-7.47.9142-9.6296 2.7426-2.0156 1.538-3.2095 3.9082-3.2397 6.4315-.041 2.1958 1.0925 4.25 2.98 5.3965 1.984 1.324 4.327 2.0176 6.7177 1.9886v-.037zm48.5206 7.947c-5.2133 0-9.518-1.2617-12.914-3.785-3.304-2.4223-5.8792-5.694-7.4475-9.4624l7.82-3.2157c2.4825 5.8056 6.7028 8.7084 12.6608 8.7084 2.3668.0962 4.7064-.5308 6.7028-1.7964 1.6462-1.0145 2.64-2.808 2.6215-4.7312 0-3.026-2.13-5.0762-6.4-6.1506l-9.436-2.2695c-3.105-.8154-5.9977-2.2826-8.4827-4.3024-2.645-2.0476-4.1362-5.2334-4.0068-8.5605 0-4.1 1.827-7.427 5.4814-9.98 3.8225-2.6045 8.3758-3.9447 13.0108-3.8293 3.87-.0614 7.6858.906 11.052 2.8018 3.178 1.791 5.6352 4.6164 6.956 7.9987l-7.6188 3.09c-1.713-4.1-5.2728-6.1506-10.6797-6.1506-2.3-.076-4.576.482-6.5762 1.6116-1.6387.8427-2.667 2.5222-2.6662 4.3542 0 2.6514 2.0654 4.4503 6.1963 5.3965l9.2424 2.1808c4.384.9857 7.6263 2.7106 9.7265 5.1747 2.0343 2.302 3.1518 5.262 3.1428 8.324.0406 4.0824-1.868 7.943-5.1462 10.4086-3.4308 2.7894-7.8472 4.1842-13.249 4.1842zm47.1874 0c-7.0553 0-12.79-2.3336-17.2038-7S446.225 90.429 446.22 83.2978c-.1296-6.3986 2.167-12.612 6.4347-17.4093 4.1028-4.763 10.1556-7.4287 16.4665-7.252 6.95 0 12.497 2.24 16.6377 6.7198S491.98 75.829 492 83.3348l-.0968 1.6116H454.97c.2532 4.667 1.827 8.3634 4.7217 11.0887 2.7148 2.6374 6.375 4.095 10.1733 4.051 6.2907 0 10.5482-2.65 12.7725-7.947l7.82 3.2157c-1.5842 3.6662-4.198 6.8022-7.5294 9.0336-3.5 2.405-7.7926 3.6075-12.8768 3.6075zm12.5863-30.3092c-.1887-2.6514-1.4125-5.1747-3.6716-7.57s-5.613-3.568-10.0616-3.5188c-3.0923-.053-6.096 1.026-8.438 3.031-2.4532 2.1338-4.1698 4.978-4.908 8.1317l27.0792-.074z"/>
  <path fill="#ffa000" d="M23.8333 111.7187L39.9655 8.4906c.1972-1.266 1.1818-2.264 2.445-2.4786s2.522.4028 3.126 1.5327L62.22 38.662l6.65-12.6615c.515-.979 1.5303-1.592 2.6366-1.592s2.1215.613 2.6366 1.592l45.0227 85.718H23.8333z"/>
  <path fill="#f57c00" d="M79.566 71.5074L62.2124 38.6472l-38.379 73.0715L79.566 71.5074z"/>
  <path fill="#ffca28" d="M119.1666 111.7187l-12.356-76.4603c-.1867-1.098-.9703-2-2.0315-2.34s-2.2226-.057-3.0107.7302l-77.935 78.069 43.1234 24.1834c2.708 1.512 6.006 1.512 8.714 0l43.4958-24.1834z"/>
  <path fill="#fff" fill-opacity=".2" d="M106.8105 35.2584c-.1867-1.098-.9703-2-2.0315-2.34s-2.2226-.057-3.0107.7302L86.3 49.1562 74.1365 26c-.515-.979-1.5303-1.592-2.6366-1.592s-2.1215.613-2.6366 1.592l-6.65 12.6615L45.529 7.5447c-.605-1.1302-1.8653-1.7466-3.13-1.5304S40.153 7.231 39.958 8.498L23.8333 111.7187h-.052l.052.0596.4245.2085 77.488-77.5775c.7877-.7915 1.952-1.076 3.016-.737s1.849 1.2445 2.0338 2.3457l12.2518 75.775.1192-.0745-12.356-76.4603zm-82.8357 76.3188L39.9655 9.228c.1948-1.267 1.1784-2.2675 2.442-2.4837s2.524.4 3.13 1.5304L62.22 39.392l6.65-12.6615c.515-.979 1.5303-1.592 2.6366-1.592s2.1215.613 2.6366 1.592l11.9167 22.664-62.0858 62.1827z"/>
  <path fill="#a52714" opacity=".2" d="M75.6708 135.1722c-2.708 1.512-6.006 1.512-8.714 0L23.9376 111.056l-.1043.663 43.1234 24.176c2.708 1.512 6.006 1.512 8.714 0l43.4958-24.176-.1117-.6852-43.384 24.1387z"/>
  <use fill="url(#a)" xlink:href="#b"/>
</svg>
