<svg xmlns="http://www.w3.org/2000/svg" width="236" height="101" fill="none" viewBox="0 0 236 101"><g clip-path="url(#clip0)"><path fill="#eebbc3" d="M141.439 34.5373C136.265 34.5373 132.411 37.1151 132.411 43.319 132.411 47.9933 134.951 51.238 141.161 51.238 146.424 51.238 149.999 48.0918 149.999 43.126 149.999 37.4984 146.8 34.5377 141.439 34.5377V34.5373zM131.09 78.3405C129.865 79.8651 128.645 81.485 128.645 83.3967 128.645 87.2106 133.439 88.3584 140.025 88.3584 145.481 88.3584 152.912 87.9708 152.912 82.8251 152.912 79.7667 149.337 79.5773 144.819 79.29L131.089 78.3405H131.09zM158.931 34.8259C160.621 37.0212 162.411 40.0753 162.411 44.4645 162.411 55.0557 154.227 61.2578 142.379 61.2578 139.366 61.2578 136.638 60.877 134.947 60.4007L131.842 65.4571 141.058 66.0284C157.332 67.0802 166.923 67.5582 166.923 80.2447 166.923 91.2209 157.425 97.4195 141.058 97.4195 124.034 97.4195 117.545 93.0296 117.545 85.4924 117.545 81.1968 119.426 78.9119 122.718 75.7582 119.613 74.4268 118.58 72.0426 118.58 69.4651 118.58 67.3644 119.613 65.4565 121.309 63.6423 123.002 61.831 124.882 60.0156 127.14 57.917 122.531 55.6273 119.05 50.6653 119.05 43.6033 119.05 32.6315 126.2 25.0962 140.587 25.0962 144.633 25.0962 147.08 25.4739 149.243 26.0499H167.585V34.1585L158.931 34.8267"/><path fill="#eebbc3" d="M184.141 17.4861C178.779 17.4861 175.676 14.3345 175.676 8.89356 175.676 3.45947 178.779.499207 184.141.499207 189.597.499207 192.701 3.45947 192.701 8.89356 192.701 14.3344 189.597 17.4861 184.141 17.4861zM172.006 74.8285V67.2941L176.805 66.6282C178.122 66.4346 178.309 66.1506 178.309 64.7159V36.6631C178.309 35.6156 178.028 34.9448 177.084 34.6608L172.006 32.8462 173.04 25.1201H192.512V64.7166C192.512 66.2461 192.603 66.4353 194.017 66.6289L198.815 67.2948V74.8292H172.005"/><path fill="#eebbc3" d="M236.009 71.1307C231.962 73.1321 226.038 74.9454 220.674 74.9454 209.482 74.9454 205.251 70.3696 205.251 59.5827V34.5849C205.251 34.0135 205.251 33.6302 204.495 33.6302H197.912V25.1383C206.192 24.1816 209.481 19.9823 210.516 9.58179H219.453V23.1359C219.453 23.8014 219.453 24.0896 220.206 24.0896H233.467V33.63H219.453V56.4342C219.453 62.0647 220.772 64.2575 225.848 64.2575 228.485 64.2575 231.209 63.5916 233.467 62.732L236.009 71.1314"/><path fill="#f05133" d="M96.6445 46.0899 53.6352 2.46315C51.1605-.0496077 47.1436-.0496077 44.6659 2.46315L35.7355 11.5238 47.0634 23.0157C49.6969 22.1137 52.7154 22.7185 54.8135 24.8475 56.9226 26.9898 57.5145 30.0781 56.6031 32.7587L67.5212 43.8349C70.1626 42.9114 73.2102 43.508 75.3194 45.6516 78.2682 48.6422 78.2682 53.4882 75.3194 56.4796 72.3702 59.4719 67.5934 59.4719 64.6425 56.4796 62.4253 54.2284 61.8769 50.9235 62.9999 48.152L52.8175 37.8222 52.8167 65.005C53.5356 65.366 54.214 65.8479 54.8131 66.453 57.761 69.4432 57.761 74.2884 54.8131 77.2836 51.8643 80.2738 47.0854 80.2738 44.1397 77.2836 41.1913 74.2886 41.1913 69.4435 44.1397 66.453 44.8683 65.7151 45.7114 65.1566 46.611 64.7822V37.3469C45.711 36.9742 44.8689 36.4198 44.1392 35.676 41.9059 33.4122 41.3681 30.087 42.5134 27.3049L31.3463 15.9743 1.85838 45.8884C-.619296 48.4031-.619296 52.4782 1.85838 54.9911L44.8651 98.618C47.3411 101.131 51.3566 101.131 53.8361 98.618L96.644 55.1972C99.1209 52.6832 99.1209 48.6069 96.644 46.0936"/></g><defs><clipPath id="clip0"><path d="M0 0h236v1e2H0z" fill="#fff" transform="translate(0 0.5)"/></clipPath></defs></svg>