<svg xmlns="http://www.w3.org/2000/svg" width="200" height="55" fill="none" viewBox="0 0 200 55"><path fill="#10aa50" d="M24.1666 22.1684C21.4145 10.0276 15.6785 6.79552 14.2152 4.5108 13.6119 3.50433 13.0774 2.45814 12.6154 1.37943 12.5381 2.45797 12.3961 3.13745 11.4793 3.95535 9.6386 5.59654 1.82094 11.9671 1.16303 25.7617.550057 38.6234 10.6183 46.5543 11.9485 47.374 12.9713 47.8773 14.217 47.3848 14.8246 46.9228 19.6781 43.5919 26.3093 34.7119 24.172 22.1684"/><path fill="#b8c4c2" d="M13.0325 40.5253C12.779 43.7088 12.5975 45.5585 11.9539 47.3776 11.9539 47.3776 12.3763 50.4083 12.6729 53.6188H13.7227C13.9731 51.358 14.3555 49.1138 14.8678 46.8977 13.5088 46.229 13.0846 43.3187 13.0325 40.5253z"/><path fill="#12924f" d="M14.866 46.8994C13.4926 46.2648 13.0954 43.2934 13.0342 40.5252 13.3739 35.9587 13.4729 31.3776 13.3308 26.8007 13.2589 24.3991 13.365 4.5575 12.7394 1.65262 13.1674 2.63647 13.6604 3.5907 14.2153 4.50897 15.6785 6.79548 21.4163 10.0275 24.1666 22.1683 26.3093 34.6903 19.714 43.5469 14.866 46.8994z"/><path fill="#b8c1ec" d="M195.882 42.5097C195.294 42.5096 194.719 42.3357 194.229 42.0098 193.74 41.6839 193.358 41.2206 193.131 40.6781 192.904 40.1356 192.842 39.5381 192.954 38.9608 193.066 38.3834 193.346 37.852 193.759 37.4334 194.172 37.0147 194.699 36.7275 195.275 36.6078 195.851 36.4881 196.449 36.5413 196.995 36.7607 197.54 36.9801 198.009 37.3558 198.341 37.8408 198.674 38.3257 198.856 38.8982 198.864 39.4862 198.875 39.8826 198.805 40.2772 198.659 40.6461 198.514 41.0151 198.295 41.3508 198.017 41.6332 197.738 41.9155 197.406 42.1387 197.039 42.2894 196.672 42.44 196.278 42.5149 195.882 42.5097zM195.882 36.815C195.344 36.8114 194.818 36.9674 194.37 37.2632 193.921 37.5589 193.57 37.9812 193.362 38.4764 193.153 38.9717 193.097 39.5176 193.199 40.0451 193.301 40.5726 193.557 41.058 193.935 41.4396 194.314 41.8213 194.797 42.0822 195.323 42.1892 195.85 42.2962 196.396 42.2446 196.893 42.0408 197.39 41.837 197.816 41.4902 198.116 41.0444 198.416 40.5986 198.577 40.0738 198.578 39.5365 198.585 39.1793 198.52 38.8244 198.388 38.4927 198.255 38.161 198.057 37.8593 197.805 37.6055 197.554 37.3517 197.254 37.1509 196.924 37.0152 196.593 36.8794 196.239 36.8113 195.882 36.815zM196.601 41.4132 195.831 39.754H195.211V41.4132H194.76V37.6383H195.873C196.701 37.6383 197.046 37.9978 197.046 38.6934 197.046 39.2471 196.786 39.5922 196.3 39.6983L197.095 41.4078 196.601 41.4132zM195.229 39.3639H195.882C196.41 39.3639 196.611 39.1842 196.611 38.7024 196.611 38.2207 196.419 38.0571 195.824 38.0571H195.229V39.3639z"/><path fill="#b8c1ec" d="M151.498 39.7918C152.305 40.4372 153.917 40.7032 155.339 40.7032 157.182 40.7032 158.988 40.3617 160.754 38.7672 162.551 37.1332 163.788 34.6328 163.788 30.6404 163.788 26.8044 162.328 23.691 159.334 21.8682 157.644 20.8059 155.454 20.387 152.958 20.387 152.238 20.387 151.498 20.4248 151.077 20.6153 150.905 20.7514 150.783 20.9412 150.73 21.1546 150.655 21.8377 150.655 27.0398 150.655 30.1155 150.655 33.2684 150.655 37.6653 150.73 38.2046 150.77 38.6612 151 39.4629 151.498 39.799V39.7918zM143.833 18.6793C144.486 18.6793 146.966 18.7926 148.12 18.7926 150.277 18.7926 151.768 18.6793 155.799 18.6793 159.179 18.6793 162.023 19.5907 164.056 21.3361 166.515 23.4645 167.831 26.4251 167.831 30.0328 167.831 35.1595 165.494 38.1219 163.144 39.7918 160.808 41.5391 157.768 42.526 153.437 42.526 151.133 42.526 147.177 42.4505 143.874 42.4127H143.806C143.651 42.1089 144.088 40.9243 144.358 40.8938 145.257 40.7931 145.494 40.7571 145.907 40.5864 146.605 40.3006 146.768 39.9446 146.846 38.6917 146.961 36.3369 146.923 33.5273 146.923 30.3366 146.923 28.0591 146.961 23.6155 146.885 22.2098 146.768 21.0341 146.272 20.7304 145.267 20.5021 144.555 20.3507 143.835 20.2367 143.11 20.1605 143.035 19.9322 143.625 18.9022 143.817 18.6793"/><path fill="#b8c1ec" d="M177.349 20.6063C177.196 20.644 177.004 21.0251 177.004 21.2139 176.964 22.5818 176.926 26.15 176.926 28.6181 176.936 28.6652 176.959 28.7085 176.994 28.7424 177.028 28.7763 177.071 28.7993 177.119 28.8086 177.617 28.8464 178.846 28.8859 179.883 28.8859 181.343 28.8859 182.188 28.6954 182.648 28.4671 183.877 27.8595 184.445 26.5293 184.445 25.0876 184.445 21.7837 182.141 20.5308 178.724 20.5308 178.262 20.5249 177.8 20.5502 177.341 20.6063H177.349zM186.06 35.7958C186.06 32.4541 183.601 30.5559 179.107 30.5559 178.916 30.5559 177.489 30.5181 177.149 30.5936 177.034 30.6314 176.919 30.7069 176.919 30.7841 176.919 33.1767 176.88 37.0109 176.996 38.5299 177.074 39.1752 177.536 40.0866 178.109 40.3526 178.724 40.6942 180.106 40.7697 181.066 40.7697 183.716 40.7697 186.06 39.2903 186.06 35.7958zM170.41 18.7458C170.757 18.7458 171.778 18.859 174.39 18.859 176.847 18.859 178.844 18.7835 181.221 18.7835 184.178 18.7835 188.247 19.8477 188.247 24.2518 188.247 26.4088 186.712 28.1633 184.715 28.9992 184.6 29.0369 184.6 29.1124 184.715 29.1502 187.557 29.8692 190.052 31.6182 190.052 34.9599 190.052 38.2261 188.017 40.2771 185.06 41.5678 183.263 42.3659 181.028 42.6302 178.769 42.6302 177.041 42.6302 172.411 42.4504 169.837 42.4792 169.567 42.3659 170.083 41.149 170.313 40.9602 170.903 40.9421 171.488 40.8503 172.055 40.687 172.975 40.4605 173.085 40.1639 173.2 38.7959 173.277 37.6185 173.277 33.4032 173.277 30.4031 173.277 26.301 173.317 23.5309 173.277 22.163 173.239 21.1006 172.855 20.7573 172.125 20.5685 171.55 20.4535 170.59 20.3402 169.822 20.227 169.63 20.0364 170.221 18.8968 170.412 18.7458"/><path fill="#b8c1ec" d="M32.671 42.5098C32.5721 42.2667 32.5321 42.0037 32.5542 41.7422 32.5455 41.5639 32.586 41.3868 32.671 41.2299 33.1677 41.1582 33.6599 41.058 34.145 40.9297 34.8245 40.7607 35.0797 40.3904 35.1193 39.524 35.2307 37.4765 35.2379 33.6351 35.1984 30.9352V30.8561C35.1984 30.5649 35.1984 30.1694 34.8389 29.8908 34.207 29.4943 33.521 29.1916 32.8022 28.992 32.4805 28.8967 32.3025 28.7277 32.3115 28.53 32.3205 28.3323 32.5236 28.0986 32.9424 28.0159 34.0551 27.9026 36.9708 27.207 38.1158 26.6785 38.2338 26.8322 38.2884 27.0251 38.2686 27.2178 38.2686 27.3364 38.2507 27.4622 38.2381 27.5917 38.2057 27.9728 38.1698 28.406 38.1698 28.8374 38.1768 28.8898 38.1983 28.9392 38.2319 28.98 38.2655 29.0209 38.3099 29.0515 38.3599 29.0685 38.41 29.0855 38.4638 29.0882 38.5154 29.0763 38.5669 29.0643 38.614 29.0383 38.6515 29.001 40.832 27.2915 42.7859 26.6821 43.7872 26.6821 45.4356 26.6821 46.719 27.4694 47.7131 29.0908 47.7359 29.13 47.7684 29.1626 47.8074 29.1856 47.8464 29.2086 47.8907 29.2211 47.936 29.2221 47.9772 29.2217 48.0176 29.2113 48.0539 29.1919 48.0903 29.1725 48.1213 29.1446 48.1445 29.1106 50.1488 27.5899 52.1351 26.6821 53.4653 26.6821 56.6075 26.6821 58.486 29.0351 58.486 32.9736 58.486 34.1061 58.4752 35.5423 58.4644 36.8815 58.4554 38.0572 58.4464 39.1591 58.4464 39.9212 58.4464 40.101 58.6945 40.6187 59.0666 40.7212 59.5268 40.9459 60.1901 41.0609 61.0295 41.2047H61.0619C61.1248 41.4312 60.9918 42.3102 60.8642 42.49 60.6556 42.49 60.368 42.472 60.0085 42.454 59.356 42.4217 58.4608 42.3767 57.42 42.3767 55.3312 42.3767 54.2401 42.4163 53.1975 42.4846 53.1184 42.2239 53.0914 41.3827 53.1867 41.2065 53.6185 41.139 54.0458 41.046 54.4666 40.9279 55.1317 40.7086 55.324 40.4066 55.3654 39.524 55.3816 38.8966 55.502 33.3691 55.2881 32.0568 55.0903 30.6961 54.0657 29.1034 51.8242 29.1034 50.9919 29.1034 49.6491 29.4504 48.3692 30.4211 48.2898 30.511 48.2452 30.6264 48.2434 30.7464V30.7734C48.3944 31.4816 48.3944 32.3085 48.3944 33.5578 48.3944 34.2769 48.3944 35.0264 48.3854 35.776 48.3764 37.3004 48.3692 38.7384 48.3944 39.826 48.3944 40.5666 48.842 40.7445 49.2033 40.8865 49.3992 40.9297 49.5538 40.9674 49.7102 41.0034 50.0104 41.0771 50.3232 41.1526 50.7888 41.2263 50.8577 41.5421 50.8515 41.8696 50.7708 42.1826 50.7517 42.3 50.7056 42.4114 50.636 42.508 49.4747 42.4684 48.2829 42.4343 46.5627 42.4343 46.0414 42.4343 45.1911 42.4558 44.4397 42.4756 43.8303 42.4918 43.2551 42.508 42.928 42.5098 42.8395 42.301 42.8001 42.0746 42.8129 41.8482 42.7945 41.6349 42.8363 41.4207 42.9333 41.2299L43.3953 41.1454C43.798 41.0735 44.1467 41.0124 44.4739 40.9297 45.0419 40.7499 45.2558 40.4407 45.2972 39.7163 45.4086 38.0266 45.4949 33.157 45.2558 31.9382 44.8496 29.9824 43.7369 28.9902 41.9465 28.9902 40.8985 28.9902 39.5737 29.4953 38.4915 30.306 38.3875 30.4074 38.3055 30.5291 38.2507 30.6637 38.1959 30.7983 38.1696 30.9427 38.1734 31.088 38.1734 31.6686 38.1734 32.3588 38.1734 33.0994 38.1734 35.5441 38.1572 38.5874 38.2165 39.9033 38.2525 40.3095 38.3963 40.7913 39.1566 40.9674 39.3238 41.016 39.6114 41.0627 39.9458 41.1184 40.1381 41.1508 40.3484 41.1849 40.5659 41.2245 40.6351 41.6549 40.6 42.0957 40.4635 42.5098 40.1291 42.5098 39.7175 42.4882 39.2465 42.4684 38.5275 42.4361 37.6287 42.3965 36.6131 42.3965 35.4123 42.3965 34.5764 42.4361 33.9059 42.4684 33.4547 42.49 33.0647 42.508 32.6746 42.5098"/><path fill="#b8c1ec" d="M71.2199 28.3071C70.5711 28.2937 69.9329 28.4732 69.3864 28.823 68.0526 29.6337 67.3731 31.2534 67.3731 33.6333 67.3731 38.0877 69.6039 41.1993 72.7982 41.1993 73.6546 41.2265 74.49 40.9307 75.1386 40.3707 76.1201 39.5707 76.6414 37.9349 76.6414 35.6448 76.6414 31.2569 74.4609 28.3071 71.2163 28.3071H71.2199zM71.8311 42.8513C66.0609 42.8513 64.0062 38.618 64.0062 34.658 64.0062 31.8915 65.1369 29.729 67.3677 28.228 68.9301 27.2607 70.7236 26.7306 72.5609 26.6929 76.9631 26.6929 80.0388 29.8584 80.0388 34.3937 80.0388 37.4748 78.811 39.9087 76.4868 41.4294 75.3705 42.1125 73.4309 42.8513 71.8311 42.8513z"/><path fill="#b8c1ec" d="M129.965 28.3071C129.315 28.2924 128.675 28.472 128.128 28.823 126.794 29.6337 126.114 31.2534 126.114 33.6333 126.114 38.0877 128.345 41.1993 131.539 41.1993 132.398 41.2283 133.237 40.9324 133.887 40.3707 134.868 39.5707 135.388 37.9349 135.388 35.6448 135.388 31.2569 133.209 28.3071 129.965 28.3071zM130.579 42.8513C124.809 42.8513 122.755 38.618 122.755 34.6598 122.755 31.8897 123.885 29.729 126.118 28.228 127.679 27.2602 129.472 26.7299 131.309 26.6929 135.712 26.6929 138.787 29.8602 138.787 34.3919 138.787 37.4766 137.559 39.9087 135.235 41.4276 134.119 42.1125 132.179 42.8513 130.579 42.8513z"/><path fill="#b8c1ec" d="M110.536 28.1561C108.759 28.1561 107.608 29.56 107.608 31.7333 107.608 33.9065 108.599 36.4897 111.383 36.4897 111.861 36.4897 112.728 36.2776 113.157 35.8048 113.804 35.2098 114.236 33.9802 114.236 32.6824 114.236 29.8476 112.855 28.1561 110.545 28.1561H110.536zM110.315 43.1551C109.813 43.1496 109.318 43.2734 108.877 43.5146 107.47 44.4134 106.817 45.3122 106.817 46.3566 106.817 47.3344 107.197 48.1128 108.013 48.8031 109.001 49.6407 110.335 50.0488 112.088 50.0488 115.537 50.0488 117.083 48.1937 117.083 46.3566 117.083 45.0767 116.442 44.2192 115.12 43.7339 114.103 43.3618 112.402 43.1569 110.321 43.1569L110.315 43.1551zM110.551 51.965C108.48 51.965 106.988 51.5282 105.714 50.5467 104.473 49.5904 103.916 48.1703 103.916 47.1888 103.929 46.5563 104.171 45.9499 104.595 45.4811 104.955 45.0713 105.791 44.3037 107.723 42.9753 107.753 42.9626 107.779 42.9413 107.797 42.9141 107.815 42.8869 107.824 42.8551 107.824 42.8225 107.825 42.7862 107.813 42.7507 107.791 42.722 107.768 42.6932 107.737 42.6729 107.702 42.6643 106.111 42.055 105.631 41.0465 105.485 40.5072 105.485 40.4875 105.485 40.4569 105.469 40.4228 105.424 40.2106 105.381 40.0093 105.67 39.8026 105.893 39.6444 106.249 39.4323 106.63 39.2076 107.168 38.9098 107.684 38.574 108.174 38.2028 108.201 38.1744 108.22 38.1405 108.232 38.1034 108.243 38.0664 108.245 38.0273 108.239 37.9892 108.233 37.951 108.218 37.9148 108.196 37.8832 108.173 37.8517 108.144 37.8257 108.11 37.8073 105.755 37.0164 104.569 35.2673 104.569 32.5943 104.561 31.7608 104.755 30.9378 105.134 30.1952 105.513 29.4526 106.065 28.8124 106.744 28.3287 107.691 27.5791 110.069 26.6785 111.61 26.6785H111.7C113.283 26.7162 114.177 27.0488 115.413 27.5054 116.117 27.7598 116.862 27.8781 117.61 27.8541 118.92 27.8541 119.494 27.4389 119.986 26.9553 120.066 27.1731 120.109 27.4028 120.112 27.6348 120.142 28.1875 119.992 28.735 119.684 29.1951 119.417 29.5672 118.786 29.8368 118.209 29.8368 118.149 29.8368 118.092 29.8368 118.029 29.8279 117.725 29.8065 117.424 29.7565 117.13 29.6787L116.983 29.7308C116.936 29.7991 116.966 29.8746 117.004 29.9717 117.013 29.9906 117.021 30.0105 117.026 30.031 117.131 30.5107 117.202 30.9973 117.24 31.487 117.24 34.2822 116.138 35.4992 114.946 36.4016 113.794 37.2661 112.425 37.7961 110.991 37.9331 110.961 37.9331 110.812 37.9457 110.531 37.9709 110.351 37.987 110.118 38.0086 110.084 38.0086H110.049C109.791 38.0805 109.115 38.4023 109.115 39.0009 109.115 39.497 109.42 40.1136 110.882 40.225L111.827 40.2915C113.754 40.4264 116.161 40.5935 117.294 40.9764 118.045 41.2406 118.694 41.7349 119.148 42.3891 119.602 43.0432 119.838 43.8239 119.823 44.6201 119.823 47.1277 118.04 49.4861 115.054 50.9278 113.646 51.6003 112.104 51.9463 110.544 51.9398"/><path fill="#b8c1ec" d="M101.718 41.1723C100.873 41.0591 100.256 40.944 99.5281 40.6025 99.3852 40.4545 99.2911 40.2663 99.2585 40.0632 99.1812 38.8858 99.1812 35.4686 99.1812 33.2325 99.1812 31.4079 98.8756 29.8171 98.1026 28.6756 97.1805 27.3831 95.8754 26.6246 94.1857 26.6246 92.6883 26.6246 90.6912 27.6492 89.041 29.0549 89.0015 29.0926 88.748 29.3335 88.7534 28.9596 88.7588 28.5857 88.8163 27.8271 88.8523 27.3418 88.8683 27.2129 88.8538 27.082 88.8101 26.9596 88.7664 26.8372 88.6947 26.7268 88.6006 26.6372 87.5221 27.1764 84.4968 27.8955 83.3769 28.0051 82.5608 28.1633 82.3541 28.9488 83.2259 29.2203H83.2385C83.9363 29.4127 84.6024 29.7058 85.2158 30.0903 85.5609 30.3563 85.5232 30.7356 85.5232 31.0394 85.5609 33.583 85.5609 37.4945 85.4459 39.621 85.4081 40.4569 85.1763 40.7607 84.5615 40.9135L84.619 40.8937C84.1509 41.011 83.676 41.0999 83.1971 41.1598 83.0048 41.3485 83.0048 42.4504 83.1971 42.6787 83.5818 42.6787 85.534 42.5655 87.1518 42.5655 89.3772 42.5655 90.5294 42.6787 91.1065 42.6787 91.3383 42.4127 91.4138 41.388 91.2611 41.1598 90.7293 41.1357 90.2013 41.0592 89.6846 40.9315 89.0716 40.7805 88.917 40.4749 88.8793 39.7936 88.8038 38.0068 88.8038 34.2103 88.8038 31.6272 88.8038 30.9082 88.9943 30.5649 89.2244 30.3689 89.992 29.6858 91.2611 29.2311 92.3737 29.2311 93.4523 29.2311 94.1713 29.5726 94.7106 30.0274 95.3387 30.5755 95.7325 31.3437 95.8107 32.1737 95.9635 33.6117 95.924 36.504 95.924 39.0045 95.924 40.3724 95.8107 40.7158 95.311 40.8667 95.0809 40.98 94.4661 41.095 93.7363 41.1705 93.5062 41.3988 93.5817 42.4612 93.7363 42.6895 94.734 42.6895 95.8934 42.5762 97.5759 42.5762 99.6881 42.5762 101.033 42.6895 101.57 42.6895 101.8 42.4234 101.878 41.4312 101.725 41.1705"/></svg>