<svg width="207" height="124" viewBox="0 0 207 124" fill="none" xmlns="http://www.w3.org/2000/svg">
<mask id="mask0" style="mask-type:alpha" maskUnits="userSpaceOnUse" x="0" y="0" width="207" height="124">
<g clip-path="url(#clip0)">
<path d="M48.9434 32.6323H87.9023V35.7139H52.5146V58.9073H85.792V61.9889H52.5146V87.453H88.3081V90.5346H48.9434V32.6323ZM91.3924 32.6323H95.5318L113.875 58.0964L132.624 32.6323L158.126 0.287109L116.229 60.7725L137.818 90.5346H133.517L113.875 63.4487L94.152 90.5346H89.9314L111.684 60.7725L91.3924 32.6323ZM139.361 35.7139V32.6323H183.758V35.7139H163.304V90.5346H159.733V35.7139H139.361Z" fill="black"/>
<path d="M0.203125 32.6328H4.66717L66.2238 124.304L40.7854 90.5351L3.93669 37.012L3.77436 90.5351H0.203125V32.6328Z" fill="black"/>
<path d="M183.396 86.5222C184.134 86.5222 184.673 85.9596 184.673 85.2325C184.673 84.5054 184.134 83.9428 183.396 83.9428C182.666 83.9428 182.119 84.5054 182.119 85.2325C182.119 85.9596 182.666 86.5222 183.396 86.5222ZM186.905 83.1292C186.905 85.2758 188.46 86.678 190.727 86.678C193.142 86.678 194.601 85.2325 194.601 82.7224V73.885H192.655V82.7137C192.655 84.1073 191.952 84.8516 190.71 84.8516C189.598 84.8516 188.842 84.1592 188.816 83.1292H186.905ZM197.146 83.0166C197.285 85.2498 199.153 86.678 201.932 86.678C204.903 86.678 206.762 85.1805 206.762 82.7916C206.762 80.9133 205.702 79.8747 203.131 79.2774L201.75 78.9398C200.117 78.559 199.457 78.0483 199.457 77.1568C199.457 76.0316 200.481 75.2958 202.019 75.2958C203.478 75.2958 204.486 76.0143 204.668 77.1655H206.562C206.449 75.0621 204.59 73.582 202.045 73.582C199.309 73.582 197.485 75.0621 197.485 77.2866C197.485 79.1216 198.518 80.2122 200.786 80.7402L202.401 81.1297C204.06 81.5192 204.79 82.0905 204.79 83.0426C204.79 84.1505 203.643 84.9555 202.08 84.9555C200.403 84.9555 199.239 84.2025 199.074 83.0166H197.146Z" fill="black"/>
</g>
</mask>
<g mask="url(#mask0)">
<rect x="-21" y="-5" width="264" height="137" fill="white"/>
</g>
<defs>
<clipPath id="clip0">
<rect width="207" height="124" fill="white"/>
</clipPath>
</defs>
</svg>
