<svg width="207" height="124" viewBox="0 0 207 124" xmlns="http://www.w3.org/2000/svg" xmlns:xlink="http://www.w3.org/1999/xlink"><title>next-black</title><desc>Created with Sketch.</desc><defs/><g id="Page-1" stroke="none" stroke-width="1" fill="none" fill-rule="evenodd"><g id="Black-Next.js" transform="translate(-247.000000, -138.000000)" fill="#000" fill-rule="nonzero"><g id="next-black" transform="translate(247.000000, 138.000000)"><g id="EXT-+-Type-something"><path d="M48.9421964 32.6320058H87.9011585V35.7136421H52.5134345V58.9070103H85.7908813V61.9886466H52.5134345V87.4526941H88.306981V90.5343303H48.9421964V32.6320058zm42.449036199999995.0H95.5306221L113.8738 58.0960534 132.622801 32.6320058 158.124498.286809811 116.22757 60.7722112 137.817329 90.5343303H133.51561L113.8738 63.4483691 94.1508254 90.5343303H89.9302715L111.682358 60.7722112 91.3912326 32.6320058zM139.359455 35.713642V32.6320058h44.396984V35.7136421H163.302983V90.5343303H159.731745V35.7136421L139.359455 35.713642z" id="EXT"/><path id="Type-something" d="M.202923647 32.6320058H4.66697141L66.2235778 124.303087 40.785176 90.5343303 3.93649086 37.0111732 3.77416185 90.5343303H.202923647z"/></g><path d="M183.396622 86.5227221C184.134938 86.5227221 184.673474 85.9601075 184.673474 85.233037 184.673474 84.5059658 184.134938 83.9433513 183.396622 83.9433513 182.666993 83.9433513 182.11977 84.5059658 182.11977 85.233037 182.11977 85.9601075 182.666993 86.5227221 183.396622 86.5227221zM186.905793 83.1297235C186.905793 85.2763149 188.460599 86.678523 190.727662 86.678523 193.142388 86.678523 194.601647 85.233037 194.601647 82.7229099V73.8855335H192.655968V82.7142542C192.655968 84.1078073 191.952397 84.8521899 190.710289 84.8521899 189.598473 84.8521899 188.842785 84.1597409 188.816727 83.1297235H186.905793zM197.146664 83.0172011C197.285642 85.2503478 199.153145 86.678523 201.932686 86.678523 204.903321 86.678523 206.762139 85.1811034 206.762139 82.792155 206.762139 80.9138876 205.702439 79.8752151 203.131364 79.2779777L201.750279 78.9404092C200.117298 78.5595622 199.457158 78.0488813 199.457158 77.1573541 199.457158 76.0321243 200.482113 75.296398 202.019547 75.296398 203.478806 75.296398 204.48639 76.0148135 204.668797 77.1660091H206.562359C206.44944 75.0626962 204.590622 73.5825873 202.045605 73.5825873 199.309495 73.5825873 197.48542 75.0626962 197.48542 77.2871878 197.48542 79.1221767 198.519063 80.2127835 200.786126 80.7407758L202.401734 81.1302779C204.060773 81.5197807 204.790402 82.091051 204.790402 83.0431676 204.790402 84.1510859 203.643842 84.9560573 202.08035 84.9560573 200.403939 84.9560573 199.240006 84.2030196 199.074971 83.0172011H197.146664z" id=".JS"/></g></g></g></svg>