<svg xmlns="http://www.w3.org/2000/svg" width="51" height="53" fill="none" viewBox="0 0 51 53"><path fill="#B8C1EC" d="M43.1747 8.64065C33.4101 -1.35044 17.5809 -1.34804 7.8193 8.64614C-1.94232 18.6403 -1.93998 34.8415 7.82467 44.8326C17.5893 54.8237 33.4184 54.8213 43.18 44.8271C47.8681 40.0273 50.5011 33.518 50.4997 26.7311C50.4983 19.9454 47.8634 13.4381 43.1747 8.64065ZM38.3613 36.7923C38.3602 36.7934 38.3591 36.7946 38.358 36.7957V36.7872L37.0913 38.0751C35.4531 39.7729 33.0672 40.4715 30.7996 39.9174C28.5149 39.2915 26.343 38.2952 24.3663 36.9663C22.5297 35.765 20.8278 34.3607 19.2913 32.7784C17.8775 31.342 16.6074 29.7648 15.4996 28.0703C14.2879 26.247 13.3288 24.2607 12.6496 22.168C11.871 19.7096 12.5162 17.012 14.3163 15.1997L15.7996 13.6815C16.212 13.2575 16.8821 13.256 17.2963 13.6781C17.2973 13.6792 17.2985 13.6803 17.2996 13.6815L21.9829 18.4749C22.3971 18.897 22.3986 19.5829 21.9862 20.0068C21.9851 20.0079 21.984 20.009 21.9829 20.0102L19.2329 22.8248C18.4438 23.6236 18.3446 24.893 18.9996 25.8101C19.9942 27.2072 21.0949 28.5219 22.2913 29.7421C23.6252 31.1132 25.0753 32.3605 26.6246 33.4694C27.5198 34.1085 28.7335 34.0007 29.5079 33.2135L32.1662 30.45C32.5786 30.026 33.2487 30.0245 33.6629 30.4466C33.6639 30.4477 33.665 30.4488 33.6662 30.45L38.3579 35.2605C38.7722 35.6825 38.7737 36.3683 38.3613 36.7923Z"/></svg>