<svg xmlns="http://www.w3.org/2000/svg" width="51" height="53" fill="none" viewBox="0 0 51 53"><path fill="#B8C1EC" d="M37.9979 1.26137L31.5141 1.25072C24.2297 1.25072 19.5223 6.194 19.5223 13.845V19.6519H13.0031C12.4398 19.6519 11.9836 20.1193 11.9836 20.6959V29.1093C11.9836 29.6859 12.4403 30.1528 13.0031 30.1528H19.5223V51.3826C19.5223 51.9592 19.9785 52.4261 20.5418 52.4261H29.0475C29.6108 52.4261 30.067 51.9586 30.067 51.3826V30.1528H37.6894C38.2528 30.1528 38.709 29.6859 38.709 29.1093L38.7121 20.6959C38.7121 20.419 38.6044 20.1539 38.4135 19.958C38.2226 19.7621 37.9625 19.6519 37.692 19.6519H30.067V14.7293C30.067 12.3634 30.6178 11.1623 33.6291 11.1623L37.9969 11.1607C38.5597 11.1607 39.0159 10.6933 39.0159 10.1172V2.30486C39.0159 1.72934 38.5602 1.26243 37.9979 1.26137Z"/></svg>