<svg xmlns="http://www.w3.org/2000/svg" width="51" height="52" fill="none" viewBox="0 0 51 52"><path fill="#B8C1EC" d="M25.5 1.46761C11.6875 1.46761 0.5 12.7262 0.5 26.6118C0.5 37.7232 7.6625 47.1459 17.5938 50.468C18.8438 50.7047 19.3021 49.9264 19.3021 49.259C19.3021 48.6619 19.2812 47.0798 19.2708 44.9837C12.3167 46.4998 10.85 41.6104 10.85 41.6104C9.7125 38.7083 8.06875 37.9322 8.06875 37.9322C5.80417 36.3735 8.24375 36.4054 8.24375 36.4054C10.7542 36.5803 12.0729 38.9962 12.0729 38.9962C14.3021 42.8408 17.925 41.7298 19.3542 41.088C19.5792 39.461 20.2229 38.3544 20.9375 37.7253C15.3854 37.0963 9.55 34.9342 9.55 25.3004C9.55 22.5561 10.5187 20.3129 12.1229 18.5538C11.8417 17.9184 10.9979 15.3617 12.3417 11.8988C12.3417 11.8988 14.4354 11.225 19.2167 14.4768C21.2167 13.9181 23.3417 13.6409 25.4667 13.6281C27.5917 13.6409 29.7167 13.9181 31.7167 14.4768C36.4667 11.225 38.5604 11.8988 38.5604 11.8988C39.9042 15.3617 39.0604 17.9184 38.8104 18.5538C40.4042 20.3129 41.3729 22.5561 41.3729 25.3004C41.3729 34.9597 35.5292 37.0857 29.9667 37.704C30.8417 38.4589 31.6542 40.0005 31.6542 42.3567C31.6542 45.7215 31.6229 48.4253 31.6229 49.2419C31.6229 49.9008 32.0604 50.6876 33.3417 50.436C43.3438 47.1352 50.5 37.7062 50.5 26.6118C50.5 12.7262 39.3062 1.46761 25.5 1.46761Z"/></svg>