<svg xmlns="http://www.w3.org/2000/svg" width="51" height="53" fill="none" viewBox="0 0 51 53"><path fill="#B8C1EC" d="M50.4511 16.795C50.3339 14.0758 49.9043 12.2065 49.2889 10.5866C48.654 8.86718 47.6772 7.32778 46.3975 6.04807C45.1472 4.74844 43.6332 3.73857 41.9728 3.09891C40.381 2.46901 38.5641 2.0293 35.9074 1.90941C33.2308 1.77937 32.3811 1.7493 25.5927 1.7493C18.8043 1.7493 17.9546 1.77937 15.288 1.89926C12.6313 2.01914 10.8048 2.45925 9.22255 3.08876C7.54223 3.73857 6.03819 4.73829 4.78787 6.04807C3.51809 7.32778 2.5318 8.87734 1.90645 10.5768C1.29102 12.2065 0.861397 14.0657 0.744263 16.7848C0.617208 19.5243 0.58783 20.394 0.58783 27.342C0.58783 34.29 0.617208 35.1597 0.734343 37.889C0.851477 40.6081 1.28148 42.4775 1.89691 44.0973C2.5318 45.8168 3.51809 47.3562 4.78787 48.6359C6.03819 49.9355 7.55215 50.9454 9.21263 51.585C10.8048 52.2149 12.6213 52.6547 15.2784 52.7745C17.9447 52.8948 18.7947 52.9245 25.5832 52.9245C32.3716 52.9245 33.2213 52.8948 35.8879 52.7745C38.5446 52.6547 40.371 52.2149 41.9533 51.585C45.3136 50.2553 47.9703 47.5362 49.2694 44.0973C49.8845 42.4677 50.3145 40.6081 50.4316 37.889C50.5487 35.1597 50.5781 34.29 50.5781 27.342C50.5781 20.394 50.5682 19.5243 50.4511 16.795ZM45.9485 37.689C45.8409 40.1883 45.4307 41.5379 45.0888 42.4377C44.2487 44.6671 42.5199 46.4365 40.3417 47.2964C39.4626 47.6463 38.1344 48.0661 35.7021 48.1759C33.0649 48.2961 32.2739 48.3258 25.6026 48.3258C18.9313 48.3258 18.1305 48.2961 15.5028 48.1759C13.0609 48.0661 11.7423 47.6463 10.8632 47.2964C9.77923 46.8864 8.79255 46.2366 7.99169 45.3868C7.16145 44.557 6.52656 43.5573 6.12594 42.4478C5.78408 41.5481 5.37392 40.1883 5.2667 37.6992C5.14919 34.9999 5.12019 34.19 5.12019 27.3619C5.12019 20.5338 5.14919 19.7141 5.2667 17.025C5.37392 14.5257 5.78408 13.1761 6.12594 12.2764C6.52656 11.1665 7.16145 10.157 8.00161 9.33697C8.81201 8.48721 9.78876 7.8374 10.8731 7.42775C11.7522 7.07785 13.0807 6.65805 15.5127 6.54792C18.1499 6.42804 18.9412 6.39797 25.6122 6.39797C32.2934 6.39797 33.0843 6.42804 35.712 6.54792C38.1539 6.65805 39.4725 7.07785 40.3516 7.42775C41.4356 7.8374 42.4222 8.48721 43.2231 9.33697C44.0533 10.1668 44.6882 11.1665 45.0888 12.2764C45.4307 13.1761 45.8409 14.5355 45.9485 17.025C46.0656 19.7242 46.095 20.5338 46.095 27.3619C46.095 34.19 46.0656 34.9898 45.9485 37.689Z"/><path fill="#B8C1EC" d="M25.5927 14.1957C18.5017 14.1957 12.7484 20.0839 12.7484 27.342C12.7484 34.6 18.5017 40.4882 25.5927 40.4882C32.6841 40.4882 38.437 34.6 38.437 27.342C38.437 20.0839 32.6841 14.1957 25.5927 14.1957ZM25.5927 35.8696C20.9924 35.8696 17.2609 32.0508 17.2609 27.342C17.2609 22.6332 20.9924 18.8143 25.5927 18.8143C30.1934 18.8143 33.9245 22.6332 33.9245 27.342C33.9245 32.0508 30.1934 35.8696 25.5927 35.8696Z"/><path fill="#B8C1EC" d="M41.9438 13.676C41.9438 15.3708 40.6011 16.745 38.9449 16.745C37.2889 16.745 35.9463 15.3708 35.9463 13.676C35.9463 11.9807 37.2889 10.6069 38.9449 10.6069C40.6011 10.6069 41.9438 11.9807 41.9438 13.676Z"/></svg>