<svg xmlns="http://www.w3.org/2000/svg" width="50" height="50" fill="none" viewBox="0 0 50 50"><path fill="#B8C1EC" d="M7.22265 2.53897C3.78542 2.53897 1.53809 4.79603 1.53809 7.76263C1.53809 10.6637 3.71847 12.9851 7.09076 12.9851H7.15599C10.6605 12.9851 12.8414 10.6637 12.8414 7.76263C12.7759 4.79603 10.6605 2.53897 7.22265 2.53897V2.53897Z"/><path fill="#B8C1EC" d="M2.13205 17.1127H12.1805V47.344H2.13205V17.1127Z"/><path fill="#B8C1EC" d="M36.8449 16.4032C31.4241 16.4032 27.7891 21.497 27.7891 21.497V17.1127H17.7404V47.344H27.7886V30.4617C27.7886 29.5579 27.8541 28.6555 28.1196 28.0092C28.846 26.2045 30.4991 24.3348 33.2752 24.3348C36.9112 24.3348 38.3655 27.1072 38.3655 31.1712V47.344H48.4131V30.0099C48.4131 20.7242 43.4555 16.4032 36.8449 16.4032V16.4032Z"/></svg>