<svg xmlns="http://www.w3.org/2000/svg" width="1094" height="953" fill="none" viewBox="0 0 1094 953"><g filter="url(#filter0_d)"><path fill="#FFFFFE" d="M992.526 635.798C1038.24 662.917 1038.24 729.083 992.526 756.202L-23.5334 1359.01C-70.195 1386.69 -129.25 1353.06 -129.25 1298.81L-129.25 93.1926C-129.25 38.9369 -70.1948 5.3068 -23.5331 32.9903L992.526 635.798Z"/></g><path fill="#232946" d="M411.675 420.321L411.496 483.367L198.372 513.031L198.551 449.986L411.675 420.321Z"/><path fill="#232946" d="M256.427 507.767L256.248 570.813L150.094 509.525L150.273 446.479L256.427 507.767Z"/><path fill="#232946" d="M374.815 469.214L374.636 532.26L303.39 573.663L303.569 510.617L374.815 469.214Z"/><path fill="#232946" d="M303.422 534.9L303.243 597.946L282.357 585.888L282.536 522.842L303.422 534.9Z"/><path fill="#232946" d="M313.798 528.871L313.62 591.917L303.244 597.946L303.423 534.9L313.798 528.871Z"/><path fill="#232946" d="M234.85 550.553L234.672 613.599L208.563 598.524L208.742 535.479L234.85 550.553Z"/><path fill="#232946" d="M282.536 522.842L282.357 585.888L234.672 613.599L234.85 550.553L282.536 522.842Z"/><path fill="#B8C1EC" d="M411.675 420.321L198.552 449.986L277.46 495.544L348.706 454.141L374.815 469.214L303.57 510.617L313.798 528.871L303.423 534.9L282.536 522.842L234.85 550.553L208.742 535.478L256.427 507.767L150.273 446.479L171.307 434.256L384.294 404.511L411.675 420.321Z"/><path fill="#232946" d="M574.457 553.534L574.278 616.579C574.309 605.607 566.152 595.405 549.813 585.97C510.013 562.993 463.413 567.005 410.025 598.032C378.881 616.129 363.289 632.829 363.246 648.124L363.424 585.08C363.468 569.785 379.06 553.085 410.204 534.986C463.591 503.96 510.191 499.947 549.992 522.926C566.332 532.359 574.488 542.563 574.457 553.534Z"/><path fill="#232946" d="M610.163 558.002L609.986 621.048C609.931 640.559 591.464 661.031 554.589 682.461C486.998 721.739 424.63 724.891 367.511 691.912C340.57 676.359 327.124 660.191 327.171 643.414L327.35 580.368C327.303 597.147 340.748 613.313 367.69 628.867C424.809 661.845 487.176 658.695 554.767 619.417C591.645 597.986 610.108 577.513 610.163 558.002Z"/><path fill="#4A56CC" d="M388.724 616.645C427.487 639.023 473.949 634.49 528.073 603.037C581.459 572.012 588.755 545.306 549.992 522.926C510.191 499.947 463.591 503.959 410.204 534.986C356.081 566.439 348.924 593.665 388.724 616.645ZM571.038 510.695C628.157 543.672 622.739 579.915 554.767 619.417C487.176 658.695 424.81 661.845 367.691 628.867C309.534 595.291 314.263 558.862 381.854 519.583C449.824 480.083 512.88 477.119 571.038 510.695Z"/><path fill="#C93737" d="M539.408 828.875L485.833 860.01C484.888 860.557 483.346 860.563 482.394 860.016L428.469 828.881C427.993 828.608 427.758 828.246 427.759 827.885L427.746 832.829C427.744 833.192 427.98 833.553 428.455 833.828L482.382 864.962C483.33 865.509 484.875 865.505 485.818 864.955L539.392 833.822C539.862 833.55 540.096 833.193 540.096 832.835L540.111 827.891C540.11 828.247 539.876 828.604 539.408 828.875Z"/><path fill="#D93B3B" d="M539.397 826.895C540.344 827.443 540.35 828.332 539.408 828.879L485.833 860.014C484.888 860.562 483.346 860.567 482.394 860.02L428.469 828.885C427.521 828.338 427.525 827.443 428.468 826.895L482.044 795.76C482.986 795.214 484.52 795.214 485.469 795.76L539.397 826.895Z"/><path fill="#E83F3F" d="M518.695 825.998L518.689 825.979C518.714 823.785 518.085 821.6 516.872 819.501L495.846 744.642L472.014 744.674L450.857 819.928C449.76 821.894 449.18 823.933 449.157 825.975L449.151 825.998H449.154C449.107 831.152 452.469 836.302 459.257 840.221C472.794 848.037 494.812 847.997 508.433 840.133C515.21 836.221 518.625 831.11 518.688 825.998H518.695Z"/><path fill="#C93737" d="M475.34 750.827C470.631 748.109 470.654 743.685 475.394 740.949C480.135 738.212 487.794 738.199 492.505 740.917C497.215 743.637 497.191 748.06 492.451 750.797C487.712 753.532 480.05 753.547 475.34 750.827Z"/><path fill="#F2F2F2" d="M514.679 811.701L510.808 797.919C509.455 799.306 507.755 800.614 505.705 801.797C493.599 808.787 474.033 808.822 462.002 801.876C459.997 800.718 458.331 799.439 457 798.081L453.146 811.782C453.752 815.795 456.699 819.702 462.002 822.766C474.033 829.711 493.599 829.676 505.705 822.688C511.03 819.613 514.018 815.704 514.679 811.701Z"/><path fill="#F2F2F2" d="M501.55 764.949C490.97 769.245 476.845 769.291 466.279 765.073L461.135 783.368C461.428 783.55 461.694 783.743 462.003 783.924C474.033 790.869 493.6 790.832 505.705 783.844C506.051 783.644 506.354 783.428 506.681 783.221L501.55 764.949Z"/><path fill="#B8C1EC" d="M388.724 616.645C427.487 639.023 473.949 634.49 528.073 603.037C581.459 572.012 588.755 545.306 549.992 522.926C510.191 499.947 463.591 503.959 410.204 534.986C356.081 566.439 348.924 593.665 388.724 616.645ZM571.038 510.695C628.157 543.672 622.739 579.915 554.767 619.417C487.176 658.695 424.81 661.845 367.691 628.867C309.534 595.291 314.263 558.862 381.854 519.583C449.824 480.083 512.88 477.119 571.038 510.695Z"/><path fill="#E2E2E2" d="M489.316 508.422L488.864 621.597C491.53 620.645 494.223 619.6 496.93 618.496L497.371 508.283C494.707 508.238 492.024 508.281 489.316 508.422Z"/><path fill="#E2E2E2" d="M497.371 508.283L497.452 487.853C494.778 487.69 492.092 487.616 489.399 487.59L489.317 508.422C492.024 508.281 494.708 508.238 497.371 508.283Z"/><path fill="#F2F2F2" d="M439.781 630.594C455.237 630.768 471.598 627.77 488.864 621.597L489.317 508.422C473.725 509.237 457.358 513.137 440.221 520.105L439.781 630.594Z"/><path fill="#F2F2F2" d="M489.317 508.422L489.399 487.59C473.364 487.427 457.005 489.663 440.324 494.3L440.221 520.105C457.359 513.137 473.725 509.237 489.317 508.422Z"/><path fill="#FDE169" d="M344.098 436.881L351.784 432.414C351.774 435.922 354.242 440.199 357.286 441.956L349.6 446.423C346.556 444.665 344.089 440.389 344.098 436.881Z"/><path fill="#FDE169" d="M344.122 428.548L351.808 424.081L351.784 432.414L344.098 436.881L344.122 428.548Z"/><path fill="#FDE169" d="M344.318 359.342L352.004 354.875L351.904 389.918L344.219 394.385L344.318 359.342Z"/><path fill="#FDE169" d="M391.516 470.623L399.202 466.156L429.699 483.762L422.013 488.23L391.516 470.623Z"/><path fill="#FDE169" d="M451.744 505.394L459.431 500.929L489.927 518.536L482.241 523.003L451.744 505.394Z"/><path fill="#FDE169" d="M511.971 540.167L519.657 535.7L550.154 553.308L542.469 557.776L511.971 540.167Z"/><path fill="#FDE169" d="M568.041 439.121L451.744 505.394L482.241 523.003L585.715 464.035L585.619 498.198L511.972 540.167L542.469 557.776L585.52 533.242L585.399 576.195C585.388 579.704 582.904 581.119 579.85 579.357L349.6 446.423C346.556 444.665 344.089 440.389 344.098 436.881L344.439 316.378C344.45 312.879 346.934 311.464 349.978 313.221L387.369 334.808L344.318 359.342L344.219 394.386L417.864 352.416L447.595 369.581L344.122 428.548L344.098 436.881C344.089 440.389 346.556 444.665 349.6 446.423L361.786 453.458L478.083 387.183L507.815 404.348L391.516 470.623L422.013 488.23L538.311 421.956L568.041 439.121Z"/><path fill="#FDE169" d="M349.6 446.423L357.286 441.956L369.471 448.991L361.785 453.458L349.6 446.423Z"/><path fill="#58595B" d="M417.864 352.416L344.219 394.385L344.318 359.342L387.369 334.808L417.864 352.416Z"/><path fill="#58595B" d="M478.083 387.183L361.786 453.458L349.6 446.423C346.556 444.665 344.089 440.389 344.098 436.881L344.122 428.548L447.595 369.581L478.083 387.183Z"/><path fill="#58595B" d="M538.311 421.956L422.013 488.23L391.516 470.623L507.815 404.348L538.311 421.956Z"/><path fill="#58595B" d="M585.619 498.198L585.519 533.242L542.469 557.776L511.971 540.167L585.619 498.198Z"/><path fill="#58595B" d="M580.226 446.156C583.28 447.917 585.749 452.195 585.738 455.692L585.715 464.036L482.241 523.003L451.744 505.394L568.041 439.121L580.226 446.156Z"/><path fill="#ECD262" d="M587.905 441.689L575.72 434.654L545.989 417.489L515.492 399.882L485.761 382.716L455.275 365.114L425.543 347.949L395.046 330.342L357.657 308.755C356.124 307.871 354.735 307.79 353.73 308.374L346.044 312.84C347.049 312.257 348.438 312.336 349.969 313.221L387.36 334.808L417.857 352.416L447.588 369.581L478.076 387.183L507.806 404.348L538.303 421.956L568.034 439.121L580.219 446.156C583.273 447.917 585.742 452.195 585.731 455.692L585.708 464.035L585.612 498.198L585.512 533.242L585.39 576.195C585.385 577.937 584.769 579.164 583.776 579.741L591.462 575.275C592.456 574.699 593.071 573.472 593.076 571.728L593.198 528.775L593.297 493.732L593.394 459.57L593.418 451.226C593.429 447.727 590.958 443.452 587.905 441.689Z"/><path fill="#E83F3F" d="M555.163 546.567L370.975 440.227C369.832 439.566 369.127 438.345 369.127 437.023V349.216C369.127 346.37 372.208 344.591 374.673 346.015L558.861 452.355C560.005 453.015 560.71 454.235 560.71 455.557V543.365C560.71 546.21 557.628 547.989 555.163 546.567Z"/><path fill="#fff" d="M392.988 394.782V373.881L396.826 376.098V396.997C396.826 403.536 399.661 408.442 405.33 411.716C411 414.989 413.836 413.357 413.836 406.819V385.92L417.673 388.133V409.034C417.673 417.953 413.559 420.036 405.33 415.286C397.103 410.535 392.988 403.701 392.988 394.782Z"/><path fill="#fff" d="M424.519 426.126V392.086L428.358 394.303L446.507 432.203V404.782L450.138 406.878V440.917L446.301 438.701L428.15 400.561V428.222L424.519 426.126Z"/><path fill="#fff" d="M467.979 447.647C475.239 451.839 478.87 449.141 478.87 439.557C478.87 431.21 475.239 424.94 467.979 420.749L461.03 416.737V443.634L467.979 447.647ZM457.192 444.989V410.949L467.979 417.177C477.799 422.847 482.708 431.045 482.708 441.772C482.708 453.739 477.799 456.887 467.979 451.217L457.192 444.989Z"/><path fill="#fff" d="M507.702 440.112V443.683L492.144 434.701V446.128L506.977 454.69V458.261L492.144 449.698V461.6L508.016 470.762V474.333L488.309 462.954V428.915L507.702 440.112Z"/><path fill="#fff" d="M513.823 477.685V443.646L526.478 450.952C532.12 454.209 534.94 458.56 534.94 464.003C534.94 468.431 532.181 470.115 526.664 469.055L536.848 490.979L531.788 488.057L522.348 467.302V464.423C528.02 466.664 530.854 465.801 530.854 461.834C530.854 458.692 529.277 456.21 526.124 454.39L517.66 449.504V479.901L513.823 477.685Z"/><path fill="#fff" d="M400.507 439.338C399.352 439.099 398.101 438.593 396.757 437.817C392.068 435.111 389.726 431.086 389.726 425.742C389.726 420.686 392.068 419.511 396.757 422.218C398.101 422.993 399.352 423.929 400.507 425.028V426.751C399.352 425.58 398.163 424.644 396.944 423.94C393.288 421.829 391.461 422.764 391.461 426.744C391.461 431.011 393.288 434.201 396.944 436.312C398.163 437.016 399.352 437.45 400.507 437.617V439.338Z"/><path fill="#fff" d="M409.629 443.635C412.83 445.483 414.43 444.331 414.43 440.178C414.43 436.083 412.83 433.112 409.629 431.264C406.362 429.376 404.726 430.48 404.726 434.576C404.726 438.729 406.362 441.749 409.629 443.635ZM402.898 433.584C402.898 428.371 405.142 427.058 409.629 429.65C414.049 432.201 416.258 436.084 416.258 441.298C416.258 446.484 414.049 447.801 409.629 445.249C405.142 442.658 402.898 438.77 402.898 433.584Z"/><path fill="#fff" d="M418.978 450.538V435.154L420.713 436.156L428.916 453.285V440.892L430.557 441.839V457.223L428.822 456.223L420.618 438.984V451.486L418.978 450.538Z"/><path fill="#fff" d="M433.558 458.418V456.588C434.963 457.974 436.483 459.139 438.113 460.081C440.42 461.412 441.574 461.109 441.574 459.174C441.574 457.523 440.723 456.207 439.024 455.227L437.298 454.229C434.491 452.609 433.088 450.4 433.088 447.604C433.088 444.663 434.885 444.23 438.479 446.305C440.042 447.209 441.494 448.261 442.839 449.468V451.297C441.494 449.947 440.042 448.821 438.479 447.919C436.042 446.513 434.823 446.741 434.823 448.606C434.823 450.255 435.647 451.557 437.298 452.508L439.024 453.504C441.88 455.153 443.309 457.378 443.309 460.174C443.309 463.186 441.577 463.693 438.113 461.693C436.483 460.752 434.963 459.66 433.558 458.418Z"/><path fill="#fff" d="M454.886 455.886V457.5L450.667 455.065V468.835L448.932 467.834V454.063L444.714 451.627V450.013L454.886 455.886Z"/><path fill="#fff" d="M456.95 472.462V457.076L462.669 460.379C465.219 461.851 466.493 463.818 466.493 466.277C466.493 468.279 465.246 469.04 462.753 468.561L467.356 478.469L465.067 477.149L460.802 467.77V466.466C463.366 467.481 464.647 467.09 464.647 465.298C464.647 463.878 463.934 462.757 462.508 461.933L458.683 459.724V473.462L456.95 472.462Z"/><path fill="#fff" d="M469.091 473.533V464.086L470.826 465.088V474.535C470.826 477.489 472.106 479.707 474.67 481.186C477.231 482.666 478.513 481.927 478.513 478.973V469.526L480.248 470.528V479.975C480.248 484.006 478.388 484.947 474.67 482.8C470.95 480.653 469.091 477.564 469.091 473.533Z"/><path fill="#fff" d="M493.466 493.008C492.311 492.77 491.06 492.264 489.717 491.487C485.028 488.781 482.684 484.757 482.684 479.413C482.684 474.357 485.028 473.181 489.717 475.889C491.06 476.664 492.311 477.601 493.466 478.699V480.42C492.311 479.25 491.124 478.314 489.905 477.61C486.247 475.499 484.42 476.433 484.42 480.414C484.42 484.682 486.247 487.872 489.905 489.983C491.124 490.687 492.311 491.121 493.466 491.287V493.008Z"/><path fill="#fff" d="M505.375 485.035V486.649L501.154 484.212V497.984L499.421 496.983V483.212L495.203 480.775V479.162L505.375 485.035Z"/><path fill="#fff" d="M509.453 487.39V502.775L507.717 501.773V486.388L509.453 487.39Z"/><path fill="#fff" d="M519.185 506.888C522.385 508.734 523.986 507.582 523.986 503.43C523.986 499.333 522.385 496.362 519.185 494.514C515.917 492.628 514.281 493.731 514.281 497.826C514.281 501.98 515.917 505 519.185 506.888ZM512.454 496.837C512.454 491.621 514.698 490.31 519.185 492.9C523.605 495.452 525.812 499.335 525.812 504.55C525.812 509.735 523.605 511.053 519.185 508.502C514.698 505.91 512.454 502.021 512.454 496.837Z"/><path fill="#fff" d="M528.534 513.79V498.405L530.265 499.407L538.471 516.536V504.143L540.111 505.091V520.475L538.377 519.473L530.174 502.237V514.737L528.534 513.79Z"/><path fill="#E8E8E8" d="M300.56 700.799L300.577 706.854L314.73 715.079L314.713 709.024L300.56 700.799Z"/><path fill="#E8E8E8" d="M317.829 719.416L317.813 713.359C317.808 711.788 316.775 710.223 314.713 709.023L314.73 715.078C316.792 716.278 317.825 717.844 317.829 719.416Z"/><path fill="#E8E8E8" d="M337.747 720.171L337.764 726.226L342.083 717L342.066 710.945L337.747 720.171Z"/><path fill="#E8E8E8" d="M302.803 733.612L302.821 739.667L318.765 737.197L318.748 731.142L302.803 733.612Z"/><path fill="#E8E8E8" d="M280.281 720.523L280.298 726.578L302.821 739.667L302.803 733.612L280.281 720.523Z"/><path fill="#E8E8E8" d="M318.749 731.142L318.765 737.197L376.149 770.544L376.132 764.489L318.749 731.142Z"/><path fill="#E8E8E8" d="M396.067 771.3L396.084 777.355C396.08 775.765 397.131 774.171 399.234 772.958C403.418 770.541 410.166 770.541 414.318 772.953L414.301 766.898C410.149 764.486 403.401 764.486 399.216 766.903C397.112 768.116 396.063 769.71 396.067 771.3Z"/><path fill="#E8E8E8" d="M428.455 775.124L428.472 781.179L433.615 770.192L433.599 764.137L428.455 775.124Z"/><path fill="#E8E8E8" d="M414.302 766.898L414.318 772.953L428.472 781.179L428.455 775.124L414.302 766.898Z"/><path fill="#E8E8E8" d="M371.813 773.717L371.83 779.772L394.352 792.859L394.336 786.804L371.813 773.717Z"/><path fill="#E8E8E8" d="M394.335 786.804L394.352 792.859L413.336 789.918L413.319 783.863L394.335 786.804Z"/><path fill="#F4F4F4" d="M285.426 709.537L280.281 720.523L302.803 733.612L318.749 731.142L376.132 764.489L371.814 773.717L394.336 786.804L413.319 783.862L399.167 775.637C395.015 773.224 395.036 769.315 399.216 766.903C403.401 764.486 410.149 764.486 414.301 766.898L428.455 775.124L433.599 764.137L411.075 751.048L395.131 753.52L337.747 720.171L342.066 710.945L319.544 697.856L300.56 700.799L314.713 709.023C318.865 711.437 318.843 715.346 314.658 717.762C310.478 720.174 303.73 720.174 299.578 717.762L285.426 709.537Z"/><path fill="#E2E2E2" d="M74.9524 578.141L74.9095 593.136L74.8835 587.691L74.9249 572.694L74.9524 578.141Z"/><path fill="#E2E2E2" d="M74.9831 583.582L74.9403 598.579L74.9097 593.136L74.9525 578.141L74.9831 583.582Z"/><path fill="#E8E8E8" d="M165.313 562.951L165.272 577.946C165.27 578.219 165.122 578.491 164.819 578.719L164.862 563.722C165.165 563.494 165.313 563.222 165.313 562.951Z"/><path fill="#E8E8E8" d="M172.404 583.582L172.361 598.578C172.364 599.22 171.546 599.766 170.444 599.847L170.487 584.85C171.587 584.769 172.407 584.225 172.404 583.582Z"/><path fill="#E8E8E8" d="M165.486 593.344L165.443 608.339C165.441 608.665 165.226 608.99 164.803 609.234L164.846 594.239C165.268 593.993 165.486 593.668 165.486 593.344Z"/><path fill="#E8E8E8" d="M81.7999 577.93L81.8428 562.934C81.8428 563.21 81.9957 563.488 82.3094 563.724L82.2665 578.719C81.9544 578.485 81.7999 578.207 81.7999 577.93Z"/><path fill="#E8E8E8" d="M164.862 563.722L164.819 578.719L156.008 585.352L156.051 570.357L164.862 563.722Z"/><path fill="#E8E8E8" d="M91.1851 570.357L91.1423 585.354L82.2662 578.719L82.3091 563.724L91.1851 570.357Z"/><path fill="#E8E8E8" d="M144.539 578.2L144.497 593.196C144.506 590.081 142.45 586.96 138.335 584.584C130.156 579.863 116.934 579.863 108.809 584.584C104.773 586.93 102.754 589.998 102.745 593.073L102.787 578.078C102.797 575.003 104.816 571.934 108.852 569.589C116.977 564.866 130.199 564.866 138.377 569.589C142.493 571.965 144.549 575.084 144.539 578.2Z"/><path fill="#E8E8E8" d="M76.9138 584.85L76.8709 599.847C76.3738 599.809 75.9301 599.676 75.5935 599.482C75.1912 599.251 74.9418 598.929 74.9403 598.579L74.9831 583.582C74.9847 583.934 75.2325 584.254 75.6364 584.486C75.9714 584.681 76.4151 584.812 76.9138 584.85Z"/><path fill="#E8E8E8" d="M170.487 584.851L170.444 599.847L156.1 600.917L156.143 585.92L170.487 584.851Z"/><path fill="#E8E8E8" d="M91.2771 585.92L91.2343 600.917L76.8707 599.847L76.9136 584.851L91.2771 585.92Z"/><path fill="#E8E8E8" d="M81.9711 608.327L82.0139 593.332C82.0124 593.664 82.2327 593.991 82.6641 594.241L82.6212 609.237C82.1898 608.988 81.9711 608.658 81.9711 608.327Z"/><path fill="#E8E8E8" d="M164.847 594.239L164.804 609.234L158.175 613.087L158.218 598.091L164.847 594.239Z"/><path fill="#E8E8E8" d="M89.3309 598.091L89.2896 613.087L82.6211 609.237L82.6639 594.241L89.3309 598.091Z"/><path fill="#E8E8E8" d="M158.218 598.091L158.175 613.087L151.551 616.936L151.593 601.94L158.218 598.091Z"/><path fill="#E8E8E8" d="M148.687 602.046L148.644 617.043L137.161 611.922L137.204 596.925L148.687 602.046Z"/><path fill="#E8E8E8" d="M95.9994 601.94L95.9565 616.936L89.2896 613.087L89.3309 598.091L95.9994 601.94Z"/><path fill="#E8E8E8" d="M110.336 596.924L110.293 611.919L98.8682 617.046L98.911 602.049L110.336 596.924Z"/><path fill="#E8E8E8" d="M151.594 601.94L151.551 616.936C150.769 617.39 149.528 617.436 148.644 617.043L148.687 602.046C149.571 602.441 150.812 602.395 151.594 601.94Z"/><path fill="#E8E8E8" d="M98.911 602.049L98.8682 617.046C97.9931 617.436 96.7448 617.39 95.9569 616.935L95.9997 601.94C96.7861 602.396 98.0359 602.44 98.911 602.049Z"/><path fill="#E8E8E8" d="M137.204 596.925L137.161 611.922L135.359 620.237L135.402 605.24L137.204 596.925Z"/><path fill="#E8E8E8" d="M112.228 605.24L112.187 620.237L110.293 611.919L110.335 596.924L112.228 605.24Z"/><path fill="#E8E8E8" d="M135.402 605.24L135.359 620.237C135.221 620.875 134.288 621.348 133.179 621.349L133.222 606.352C134.329 606.352 135.264 605.878 135.402 605.24Z"/><path fill="#E8E8E8" d="M133.222 606.352L133.179 621.349L123.778 621.351L123.821 606.354L133.222 606.352Z"/><path fill="#E8E8E8" d="M123.821 606.354L123.778 621.351H114.382L114.423 606.354H123.821Z"/><path fill="#E8E8E8" d="M114.423 606.354L114.382 621.351C113.778 621.351 113.222 621.208 112.82 620.976C112.483 620.781 112.252 620.524 112.187 620.237L112.228 605.24C112.295 605.528 112.526 605.785 112.863 605.979C113.265 606.213 113.819 606.354 114.423 606.354Z"/><path fill="#F4F4F4" d="M108.951 586.689C117.13 591.41 130.347 591.413 138.474 586.691C146.599 581.968 146.556 574.31 138.377 569.589C130.199 564.866 116.977 564.866 108.852 569.589C100.725 574.311 100.773 581.967 108.951 586.689ZM165.019 592.555C165.702 593.066 165.627 593.785 164.846 594.239L158.218 598.091L151.594 601.94C150.812 602.394 149.571 602.44 148.687 602.046L137.204 596.925L135.402 605.24C135.264 605.878 134.329 606.352 133.222 606.352L123.821 606.354H114.423C113.819 606.354 113.265 606.213 112.863 605.979C112.526 605.785 112.295 605.528 112.228 605.24L110.336 596.924L98.9109 602.049C98.0359 602.44 96.786 602.396 95.9997 601.94L89.3312 598.091L82.6642 594.24C81.8779 593.788 81.7953 593.064 82.4714 592.558L91.2771 585.92L76.9136 584.85C76.4149 584.812 75.9712 584.681 75.6362 584.486C75.2323 584.254 74.9845 583.934 74.9829 583.582L74.9523 578.141L74.9248 572.694C74.9218 572.053 75.7387 571.51 76.8386 571.429L91.1853 570.357L82.3093 563.724C81.627 563.213 81.7019 562.493 82.4837 562.039L89.1078 558.19L95.735 554.336C96.5168 553.884 97.7575 553.838 98.6417 554.231L110.125 559.351L111.924 551.04C112.061 550.402 112.998 549.924 114.107 549.924H123.503L132.905 549.923C133.508 549.923 134.062 550.065 134.463 550.296C134.801 550.491 135.03 550.749 135.096 551.04L136.993 559.353L148.422 554.231C149.294 553.838 150.54 553.885 151.326 554.34L157.993 558.189L164.661 562.039C165.448 562.493 165.533 563.214 164.862 563.722L156.052 570.357L170.41 571.428C170.912 571.466 171.359 571.599 171.696 571.793C172.098 572.024 172.344 572.344 172.347 572.694L172.373 578.141L172.404 583.582C172.407 584.225 171.587 584.769 170.487 584.85L156.143 585.92L165.019 592.555Z"/><path fill="#E83F3F" d="M248.328 480.186L213.328 389.798C212.286 387.113 210.461 385.019 208.63 383.961C206.8 382.904 204.969 382.889 203.915 384.364L168.518 434.108C166.412 437.056 169.014 443.773 173.193 446.187L243.6 486.836C247.781 489.25 250.411 485.554 248.328 480.186Z"/><path fill="#C93737" d="M257.325 474.959L222.325 384.569C221.283 381.886 219.457 379.79 217.627 378.734C216.227 377.925 214.824 377.726 213.772 378.338L204.775 383.565C205.829 382.953 207.23 383.152 208.63 383.961C210.461 385.019 212.286 387.113 213.328 389.798L248.328 480.186C249.639 483.562 249.083 486.278 247.451 487.226L256.448 481.999C258.08 481.05 258.636 478.335 257.325 474.959Z"/><path fill="#fff" d="M205.436 455.862L205.452 450.129L211.284 453.496L211.267 459.229L205.436 455.862Z"/><path fill="#fff" d="M205.561 411.569L211.393 414.934L211.299 447.763L205.468 444.397L205.561 411.569Z"/><path fill="#232946" d="M787.846 637.504L787.667 700.55L574.546 730.215L574.723 667.169L787.846 637.504Z"/><path fill="#232946" d="M632.598 724.951L632.419 787.996L526.266 726.707L526.445 663.663L632.598 724.951Z"/><path fill="#232946" d="M750.987 686.399L750.81 749.445L679.562 790.846L679.741 727.801L750.987 686.399Z"/><path fill="#232946" d="M679.596 752.083L679.417 815.129L658.529 803.069L658.708 740.024L679.596 752.083Z"/><path fill="#232946" d="M689.972 746.054L689.792 809.1L679.417 815.129L679.596 752.083L689.972 746.054Z"/><path fill="#232946" d="M611.023 767.737L610.844 830.782L584.735 815.708L584.914 752.662L611.023 767.737Z"/><path fill="#232946" d="M658.708 740.024L658.529 803.07L610.844 830.782L611.023 767.737L658.708 740.024Z"/><path fill="#B8C1EC" d="M787.847 637.504L574.723 667.169L653.632 712.727L724.877 671.324L750.987 686.399L679.741 727.801L689.971 746.054L679.596 752.084L658.708 740.024L611.023 767.737L584.914 752.662L632.598 724.951L526.445 663.663L547.479 651.439L760.466 621.696L787.847 637.504Z"/><path fill="#ECD262" d="M249.995 697.187C227.144 710.381 189.978 710.313 166.985 697.039C143.99 683.762 143.874 662.306 166.725 649.112C189.576 635.919 226.74 635.987 249.735 649.262C272.73 662.538 272.846 683.994 249.995 697.187Z"/><path fill="#ECD262" d="M267.057 673.414H149.663V659.454H267.057V673.414Z"/><path fill="#FDE169" d="M249.995 682.672C227.144 695.865 189.978 695.798 166.985 682.522C143.99 669.248 143.874 647.789 166.725 634.597C189.576 621.404 226.74 621.472 249.735 634.747C272.73 648.023 272.846 669.481 249.995 682.672Z"/><path fill="#fff" d="M206.173 645.632V653.839L202.509 653.833L202.511 650.783L202.514 648.676L202.515 645.627L206.173 645.632Z"/><path fill="#fff" d="M210.422 668.385L207.187 670.241L205.801 669.441L207.418 668.512L204.184 666.647L202.567 667.573L196.739 664.209L198.354 663.28L195.122 661.414L193.505 662.341L188.187 659.272L191.423 657.416L210.422 668.385Z"/><path fill="#fff" d="M211.472 648.692L211.474 650.8L206.173 650.789L206.172 648.683L211.472 648.692Z"/><path fill="#fff" d="M216.68 659.906L221.979 659.916V662.024L216.68 662.014V659.906Z"/><path fill="#fff" d="M225.642 656.873L225.643 659.924L225.642 662.032V665.081L221.981 665.075L221.979 662.024V659.916V656.866L225.642 656.873Z"/><path fill="#fff" d="M197.215 648.669L202.514 648.676L202.512 650.783L197.21 650.774L197.215 648.669Z"/><path fill="#fff" d="M185.807 671.567C198.24 678.747 218.468 678.783 230.901 671.653C243.334 664.522 243.334 652.88 230.901 645.702C218.468 638.524 198.241 638.486 185.808 645.617C173.375 652.75 173.375 664.391 185.807 671.567ZM234.142 643.844C248.358 652.053 248.358 665.368 234.14 673.524C219.923 681.678 196.791 681.63 182.574 673.423C168.357 665.215 168.357 651.906 182.574 643.752C196.792 635.596 219.925 635.636 234.142 643.844Z"/><path fill="#fff" d="M207.419 668.512L205.802 669.441L203.205 670.929C199.815 672.874 194.3 672.863 190.909 670.906C187.519 668.948 187.519 665.774 190.909 663.831L193.505 662.341L195.122 661.414L198.354 663.28L196.739 664.209L194.143 665.696C192.536 666.618 192.536 668.123 194.143 669.052C195.749 669.978 198.365 669.984 199.973 669.063L202.567 667.573L204.184 666.647L207.419 668.512Z"/><path fill="#fff" d="M230.944 659.933V662.041L225.642 662.032L225.643 659.924L230.944 659.933Z"/><path fill="#E83F3F" d="M692.71 611.148C694.437 612.146 696.123 612.917 697.754 613.474C695.874 614.567 693.994 615.658 692.113 616.75C690.483 616.195 688.795 615.423 687.07 614.427C688.762 613.443 691.018 612.132 692.71 611.148Z"/><path fill="#E83F3F" d="M667.737 567.894C667.691 583.767 678.896 603.173 692.71 611.148L687.069 614.427C673.255 606.45 662.052 587.046 662.097 571.171C662.12 563.286 664.914 557.731 669.414 555.115L675.054 551.838C670.555 554.453 667.758 560.008 667.737 567.894Z"/><path fill="#fff" d="M675.944 596.912L681.585 593.633C684.712 598.056 688.565 601.839 692.73 604.244L687.089 607.521C682.926 605.118 679.073 601.333 675.944 596.912Z"/><path fill="#fff" d="M668.113 574.645L673.752 571.367C673.74 576.16 675.076 581.363 677.344 586.29L671.705 589.569C669.435 584.641 668.1 579.438 668.113 574.645Z"/><path fill="#fff" d="M706.267 605.558L700.628 608.835C697.163 610.848 692.37 610.57 687.089 607.521L692.73 604.244C698.012 607.293 702.805 607.57 706.267 605.558Z"/><path fill="#fff" d="M673.673 562.443L679.312 559.166C675.894 561.153 673.769 565.374 673.752 571.367L668.113 574.645C668.13 568.651 670.252 564.43 673.673 562.443Z"/><path fill="#E83F3F" d="M697.754 613.474C702.686 615.158 707.101 614.872 710.528 612.88L704.889 616.159C701.462 618.149 697.047 618.436 692.113 616.751C693.993 615.658 695.874 614.568 697.754 613.474Z"/><path fill="#E83F3F" d="M673.673 562.443L679.312 559.166C682.777 557.153 687.571 557.431 692.854 560.483L687.213 563.76C681.929 560.71 677.135 560.43 673.673 562.443Z"/><path fill="#fff" d="M669.414 555.117L675.054 551.838C679.611 549.19 685.922 549.556 692.872 553.57L687.233 556.847C680.281 552.834 673.972 552.467 669.414 555.117Z"/><path fill="#E83F3F" d="M711.83 593.35C711.813 599.346 709.69 603.569 706.267 605.558L700.628 608.835C704.049 606.848 706.173 602.624 706.191 596.629C706.203 591.843 704.868 586.633 702.599 581.713L708.238 578.436C710.51 583.356 711.844 588.565 711.83 593.35Z"/><path fill="#E83F3F" d="M675.944 596.912L681.585 593.633L708.237 578.436L702.598 581.713L675.944 596.912Z"/><path fill="#fff" d="M671.705 589.569L677.344 586.29L704.006 571.096L698.366 574.374L671.705 589.569Z"/><path fill="#E83F3F" d="M692.854 560.483C697.017 562.887 700.872 566.662 704.006 571.096L698.366 574.374C695.23 569.941 691.378 566.164 687.213 563.76C688.905 562.777 691.162 561.466 692.854 560.483Z"/><path fill="#fff" d="M710.528 612.88L704.889 616.158C709.389 613.542 712.184 607.988 712.206 600.103C712.25 584.229 701.047 564.822 687.233 556.847L692.872 553.57C706.688 561.545 717.891 580.951 717.846 596.824C717.823 604.709 715.03 610.264 710.528 612.88Z"/><path fill="#fff" d="M687.089 607.521C697.588 613.582 706.156 608.694 706.191 596.629C706.203 591.843 704.867 586.633 702.599 581.713L675.945 596.912C679.073 601.333 682.927 605.118 687.089 607.521ZM668.113 574.645C668.1 579.438 669.435 584.641 671.705 589.568L698.366 574.374C695.229 569.941 691.377 566.164 687.213 563.76C676.714 557.699 668.147 562.581 668.113 574.645ZM687.233 556.847C701.047 564.822 712.25 584.229 712.206 600.103C712.162 615.975 700.884 622.403 687.069 614.427C673.255 606.45 662.052 587.046 662.097 571.171C662.142 555.297 673.419 548.872 687.233 556.847Z"/><path fill="#E83F3F" d="M675.944 596.912L702.598 581.713C704.867 586.633 706.203 591.843 706.191 596.628C706.155 608.694 697.588 613.582 687.089 607.521C682.926 605.117 679.073 601.333 675.944 596.912Z"/><path fill="#E83F3F" d="M687.213 563.76C691.377 566.164 695.23 569.941 698.366 574.374L671.705 589.569C669.435 584.641 668.1 579.438 668.113 574.645C668.147 562.581 676.714 557.699 687.213 563.76Z"/><path fill="#E83F3F" d="M687.07 614.427C700.884 622.403 712.162 615.975 712.206 600.103C712.251 584.229 701.048 564.822 687.233 556.847C673.419 548.872 662.143 555.297 662.097 571.171C662.052 587.046 673.255 606.45 687.07 614.427ZM719.585 560.641C722.721 562.451 725.254 566.838 725.245 570.443L725.034 644.696C725.023 648.297 722.473 649.752 719.337 647.941L654.718 610.633C651.582 608.823 649.049 604.435 649.06 600.831L649.271 526.578C649.28 522.975 651.83 521.522 654.965 523.332L719.585 560.641Z"/><path fill="#C93737" d="M725.225 557.362L660.606 520.055C659.026 519.144 657.597 519.059 656.565 519.658L650.926 522.937C651.957 522.337 653.387 522.421 654.965 523.331L719.584 560.641C722.72 562.451 725.254 566.838 725.245 570.443L725.034 644.694C725.029 646.486 724.397 647.745 723.378 648.337L729.017 645.058C730.036 644.468 730.669 643.207 730.673 641.417L730.884 567.164C730.894 563.561 728.361 559.174 725.225 557.362Z"/><defs><filter id="filter0_d" width="1256.06" height="1445.83" x="-174.25" y="-21.915" color-interpolation-filters="sRGB" filterUnits="userSpaceOnUse"><feFlood flood-opacity="0" result="BackgroundImageFix"/><feColorMatrix in="SourceAlpha" type="matrix" values="0 0 0 0 0 0 0 0 0 0 0 0 0 0 0 0 0 0 127 0"/><feOffset dx="5" dy="5"/><feGaussianBlur stdDeviation="25"/><feColorMatrix type="matrix" values="0 0 0 0 0.501961 0 0 0 0 0.74902 0 0 0 0 1 0 0 0 0.5 0"/><feBlend in2="BackgroundImageFix" mode="normal" result="effect1_dropShadow"/><feBlend in="SourceGraphic" in2="effect1_dropShadow" mode="normal" result="shape"/></filter></defs></svg>