<svg xmlns="http://www.w3.org/2000/svg" width="170" height="170" fill="none" viewBox="0 0 170 170"><path fill="#B8C1EC" fill-opacity=".38" fill-rule="evenodd" d="M27.7941 124.991L87.8232 32.0253C85.9233 30.4781 84.7098 28.1203 84.7098 25.4791C84.7098 20.819 88.4876 17.0412 93.1477 17.0412C97.8078 17.0412 101.586 20.819 101.586 25.4791C101.586 28.6135 99.8766 31.3487 97.3396 32.8038L142.48 136.096C143.444 135.713 144.495 135.503 145.595 135.503C150.255 135.503 154.033 139.28 154.033 143.941C154.033 148.601 150.255 152.378 145.595 152.378C141.104 152.378 137.433 148.87 137.172 144.445L32.2783 134.115C31.5345 138.015 28.1065 140.962 23.9901 140.962C19.33 140.962 15.5522 137.185 15.5522 132.525C15.5522 127.864 19.33 124.087 23.9901 124.087C25.3586 124.087 26.6511 124.412 27.7941 124.991ZM93.1477 33.917C93.4817 33.917 93.8112 33.8976 94.135 33.8599L107.326 95.7388C103.989 96.864 101.586 100.02 101.586 103.736C101.586 104.546 101.7 105.328 101.912 106.069L31.6868 129.061C31.1219 127.808 30.2597 126.717 29.19 125.879L89.2022 32.9397C90.3796 33.5636 91.7224 33.917 93.1477 33.917ZM102.525 107.61L32.2143 130.63C32.35 131.221 32.4236 131.836 32.4278 132.467L137.235 142.789C137.448 141.226 138.09 139.799 139.038 138.63L114.619 110.814C113.297 111.674 111.719 112.174 110.024 112.174C106.76 112.174 103.929 110.321 102.525 107.61ZM115.913 109.779L140.203 137.45C140.459 137.237 140.727 137.039 141.007 136.858L95.8303 33.4817C95.8041 33.4904 95.7779 33.4991 95.7516 33.5076L108.939 95.3676C109.294 95.322 109.656 95.2985 110.024 95.2985C114.684 95.2985 118.461 99.0763 118.461 103.736C118.461 106.106 117.485 108.247 115.913 109.779Z" clip-rule="evenodd"/></svg>