<svg xmlns="http://www.w3.org/2000/svg" width="203" height="190" fill="none" viewBox="0 0 203 190"><g filter="url(#filter0_d)"><rect width="27.853" height="147.327" fill="#232946" rx="13.927" transform="matrix(0.989284 -0.146003 0.132651 0.991163 10.5262 8.18716)"/><rect width="28.7" height="155.929" fill="#232946" rx="14.35" transform="matrix(-0.596914 -0.802305 0.773101 -0.634283 17.1312 136.879)"/><rect width="27.853" height="180.738" fill="#232946" rx="13.927" transform="matrix(0.989284 -0.146003 0.132651 0.991163 75.1666 4.06665)"/><path fill="#232946" d="M159.248 59.2843C153.834 60.0832 149.42 61.7887 146.006 64.4007C142.591 67.0126 139.904 70.3736 137.945 74.4836C136.092 78.4463 134.957 83.0934 134.541 88.4249C134.231 93.609 134.491 99.3019 135.321 105.504C137.241 119.845 140.812 130.122 146.035 136.334C151.24 142.417 158.026 144.841 166.392 143.606C170.417 143.012 170.147 142.824 171.909 141.344C173.459 140.042 176.197 132.504 176.424 128.701C176.443 128.381 176.408 128.064 176.347 127.75L172.099 105.88C170.715 98.757 176.718 92.3725 183.913 93.3157C188.676 93.9402 192.428 97.6822 193.065 102.444L198.736 144.818C199.499 150.515 196.671 156.061 191.34 158.212C190.217 158.665 189.015 159.137 187.733 159.627C182.246 161.754 175.442 163.417 167.322 164.615C160.186 165.669 153.554 165.33 147.425 163.599C141.402 161.721 136.015 158.498 131.263 153.929C126.494 149.231 122.484 143.169 119.231 135.744C115.962 128.19 113.636 119.244 112.252 108.908C110.886 98.7013 110.976 89.5311 112.523 81.3977C114.052 73.1351 116.676 66.0283 120.397 60.0773C124.117 54.1263 128.819 49.414 134.501 45.9402C140.167 42.3372 146.445 40.0273 153.335 39.0104C157.764 38.3567 161.753 38.1633 165.302 38.4301C168.956 38.5495 172.136 38.8707 174.841 39.3938C177.546 39.9169 179.767 40.5772 181.505 41.3748C183.957 42.4018 185.378 44.983 184.934 47.604L184.192 51.9843C183.258 57.5015 177.197 60.7346 171.713 59.6184C167.586 58.7783 163.431 58.6669 159.248 59.2843Z"/></g><defs><filter id="filter0_d" width="208" height="191.208" x="-4" y="0" color-interpolation-filters="sRGB" filterUnits="userSpaceOnUse"><feFlood flood-opacity="0" result="BackgroundImageFix"/><feColorMatrix in="SourceAlpha" type="matrix" values="0 0 0 0 0 0 0 0 0 0 0 0 0 0 0 0 0 0 127 0"/><feOffset dy="4"/><feGaussianBlur stdDeviation="2"/><feColorMatrix type="matrix" values="0 0 0 0 1 0 0 0 0 1 0 0 0 0 1 0 0 0 0.25 0"/><feBlend in2="BackgroundImageFix" mode="normal" result="effect1_dropShadow"/><feBlend in="SourceGraphic" in2="effect1_dropShadow" mode="normal" result="shape"/></filter></defs></svg>