<svg width="226" height="400" viewBox="0 0 226 400" fill="none" xmlns="http://www.w3.org/2000/svg">
<g clip-path="url(#clip0)">
<path d="M133.815 166.694L15.6323 200.56L31.3724 71.4006H122.202L133.815 166.694Z" fill="white"/>
<path d="M147.105 337.783L90.6204 394.271C88.8039 396.087 86.6473 397.528 84.2738 398.511C81.9003 399.495 79.3564 400.001 76.7873 400.001C74.2182 400.001 71.6743 399.495 69.3008 398.511C66.9273 397.528 64.7707 396.087 62.9542 394.271L6.46932 337.783C4.3708 335.685 2.77719 333.137 1.80918 330.332C0.84116 327.527 0.524124 324.539 0.88208 321.593L2.21431 310.665L146.325 269.328L152.693 321.573C153.054 324.521 152.738 327.514 151.77 330.323C150.802 333.131 149.207 335.683 147.105 337.783Z" fill="white"/>
<path d="M147.898 0L121.569 55.1671H32.3331L6.00488 0H147.898Z" fill="white"/>
<path d="M225.974 193.014L193.411 220.198H193.408L193.196 220.378H193.193L160.958 247.29L158.924 230.215L158.909 230.093L142.127 234.905L6.71289 273.74L11.1333 237.477L138.012 201.12L154.881 196.285L154.82 195.762L152.832 179.082L188.956 185.964H188.959L190.128 186.187H190.131L225.974 193.014Z" fill="white"/>
</g>
<defs>
<clipPath id="clip0">
<rect width="225.237" height="400" fill="white" transform="translate(0.736816)"/>
</clipPath>
</defs>
</svg>
